<?xml version="1.0" encoding="UTF-8"?>
<svg id="_Слой_2" data-name="Слой 2" xmlns="http://www.w3.org/2000/svg" xmlns:xlink="http://www.w3.org/1999/xlink" viewBox="0 0 382 780">
  <defs>
    <style>
      .cls-1, .cls-2, .cls-3 {
        fill: none;
      }

      .cls-2, .cls-3 {
        stroke: #35388e;
        stroke-miterlimit: 10;
      }

      .cls-2, .cls-4 {
        opacity: .68;
      }

      .cls-5 {
        fill: #35388e;
      }

      .cls-6 {
        clip-path: url(#clippath-1);
      }

      .cls-7 {
        opacity: .59;
      }

      .cls-8 {
        opacity: .5;
      }

      .cls-9 {
        clip-path: url(#clippath);
      }
    </style>
    <clipPath id="clippath">
      <path class="cls-1" d="M71.39,0h310.61v780H71.39c-39.4,0-71.39-31.99-71.39-71.39V71.39C0,31.99,31.99,0,71.39,0Z"/>
    </clipPath>
    <clipPath id="clippath-1">
      <rect class="cls-1" x="-778.91" y="-346.38" width="1944" height="416" transform="translate(54.71 -331.47) rotate(90)"/>
    </clipPath>
  </defs>
  <g id="_Слой_1-2" data-name="Слой 1">
    <g class="cls-9">
      <g class="cls-6">
        <g class="cls-8">
          <g class="cls-4">
            <g class="cls-7">
              <path class="cls-3" d="M353.35,98.68l.2-.38-38.97-47.6-.08.05c-1.26-1.43-9.03-6.72-51.92-33.43l55.02-93.12h-.04s18.01-33.77,18.01-33.77l-1.42-.6-18.15,34.02-114.36-25.7.21-.49-.92.2,3.92-8.87-1.46-.52-4.33,9.79-132.01,28.67,35.69-36.34-1.18-.93-36.9,37.57L-9.2-111.56l.06-.55-95.41,22.47-.3-.34-.31.36-106.62-22.5L-179.04-7.33l-79.4-45.07,47.39-55.18-1.24-.86-46.27,53.87,5.94-58.52-1.56-.13-6.16,60.73-.39.45.36.2-.09,88.33-36.22,103.45,41.46,112.99.08,3.48,55.52-129.93,49.74,96.93-105.1,35.74.84.58,15.64,138.97-.15.28.16.14v143.25l-69.05-143.45,51.85-142.19-1.49-.44-52.04,142.7,70.73,146.96-27.59,109.93,25.9,92.71-21.17,261.01,1.56.1,21.18-261.12v-.11s-25.86-92.6-25.86-92.6l26.97-107.73,41.83,93.13-42.86,114.13,51.2,198.26-62.47,61.03,1.16.95,62.03-60.6,39.2,60.48,1.36-.7-39.24-60.53,131.41-34-41.11,99.99,87.18-53.98,54.88,56.36,39.67-113.99,67.16,89.47c-11.95,7.59-29.71,18.68-31.33,19.17l.5,1.33c2.39-.71,29.3-17.8,32.37-19.75l.62-.4-68.43-91.17,1.08-.49.99,2.67,1.09-3.61,74.09-33.7,37.75,57.92c-.03.07-.06.17-.06.29l-45.11,64.04,1.33.75,44.32-62.92c1.58,3.66,7.37,13.53,26.42,41.85,13.88,20.64,28.19,41.21,28.33,41.42l1.33-.74c-21.42-30.77-52.82-77.17-54.94-83.71,9.9,2.38,96.75,28.44,107.79,31.76l-50.17,49.04,1.16.95,51.8-50.64-1.14-.34c-4.06-1.22-94.64-28.44-108.35-31.95l70.11-50.47,34.91,79.84,1.46-.51-35.14-80.36,61.44-67.86-24.68,148.38-.04.23,34.64,56.37,1.38-.68-34.38-55.95,24.98-150.23.63-.14-.51-.62.38-2.26-1.17,1.29-3.04-3.69-18.95-158.56-1.48.14.29-.36.55-.67-141.74-62.72,53.29-70.38,54.03-37.92-.13-.09,31.55-31.77,1.02,196.86-84.29-125.11-1.34.72,87.22,129.47-1.06-203.51.09-.1-.07-.2,38.12-149.57.04-.17-35.54-123.94,35.44-66.69ZM351.73,98.45l-35.24,66.32-107.9,47.82-.05-.07.98-1.48c5.49-8.3,32.82-49.65,58.25-88.19l45.62,41.07,1.11-.99-45.91-41.33c21.6-32.74,41.62-63.16,45.44-69.2l37.7,46.05ZM257,712.59l1.53,2.26-.3,1.19-27.01,98.31-47.22-103.31-8.62-118.88,80.66,119.02-69.15-.44v1.4s70.11.45,70.11.45ZM259.03,712.89l-.19-.29h.26s-.07.29-.07.29ZM-156.63,799.25l89.17-81.23,3.43-1.7,92.39,18.03,33.77-79.95,53.56,64.65-4.79.61-82.43,15.76.15-.39-185.25,64.23ZM-11.11,836.68l.12-.25,94.32,67.44-134.68,14.51,40.23-81.71ZM-52.73,917.73l-43.61-62.63,83.16-17.7-39.55,80.32ZM-12.17,835.58l.17.12-85.58,18.21c-3.57-1.33-38.52-31.4-62.1-52.12l185.69-64.39-38.18,98.16ZM-174.85,396.43l72.56-70.01,15.91,90.73-78.54,42.86-9.93-63.58ZM-166.55,459.71l-70.22-61.04c17.33-33.96,43.17-83.62,48.68-91.83,1.62,12.22,11.53,88.63,11.64,89.45l.2,1.51.03-.03,9.68,61.95ZM-108.68,63.62l-89.53,59.65L-177.2-4.19-108.68,63.62ZM-175.81-4.9L-24.12,7.28l-83.29,55.49L-175.81-4.9ZM-107.62,64.66l50.92,50.39c-4.98.01-20.6.86-70.88,4.12-29.28,1.9-58.82,3.9-68.71,4.57l88.67-59.08ZM-106.36,63.82L-23.36,8.52l-31.97,105.8-51.03-50.5ZM164.65,330.67l-33.82-62.29,76.85-53.55-41.39,115.36c-.55.16-1.1.32-1.65.47ZM165.71,331.84l-.17.46-.19-.36c.12-.04.24-.07.36-.1ZM164.77,337.71l-35.78,83.88c-5.31-4.43-37.42-38.29-60.08-62.49,9.36-2.3,51.02-14.13,94.93-26.72l1.01,1.86-.68,1.89-.09.26.69,1.31ZM125.15,424.24l-.62.06.03.27-103.05,58.25,46.05-122.97c4.73,5.04,16.84,17.95,28.97,30.71,21.97,23.12,28.99,30.05,31.48,32.06l-2.86,1.62ZM99.29,214.54l-115.19,25.55c-.3-.94-.6-1.91-.91-2.89L43.9,85.59l55.39,128.95ZM44.01,81.93l.49.05-.33.31-.15-.36ZM19.16,483.03l-102.83-64.88L4.96,362.96c2.98,6.66,10,74.09,14.2,120.07ZM-22,298.26l63.1-11.64,24.24,70.76.15.24s.19.2.51.54l-60.3,3.07-27.69-62.98ZM14.87,423.81c-4.92-46.2-7.21-58.01-8.44-61.2l59.59-3.04-45.48,121.44c-.81-8.73-3.1-33.01-5.67-57.2ZM42.51,285.94l56.56-68.18-.02.24.94-1.25,29.72,51.36.24.42-.2.28c-.16.22-16.22,22.2-31.97,44.13-22.13,30.79-28.81,40.75-30.73,44.18-.09-.09-.17-.18-.26-.28l-24.28-70.89ZM130.31,270.61l32.84,60.49c-46.02,13.2-87.16,24.89-94.82,26.76,4.33-7.68,38.37-54.92,61.98-87.24ZM101.09,215.59l.31-.07-.18-.41,53.85-71.83.12-.1,52.08,70.17-76.6,53.37-29.58-51.12ZM112.36,82.94c48.83-1.1,106.5-2.48,110.62-2.58h.59s-.73,1.21-.73,1.21l-67.41,59.41-43.08-58.04ZM112.7,85.94l41.6,56.05-.39.35-52.8,70.41,11.6-126.8ZM99.65,211.46l-54.63-127.17c6.22-.01,34.29-.61,66.38-1.33l-11.75,128.5ZM-17.54,234.87c-13.17-41.87-35.07-112.02-36.55-118.66l96.67-31.46L-17.54,234.87ZM-17.51,240.15c.1.33.2.65.31.98l.21.66,115.43-25.61-57.24,68.99-63.38,11.69,5.4-54.87-1.56-.12-5.44,55.29-.34.06.05.12-74.98,25.86L-17.51,240.15ZM-23.51,298.65l27.3,62.09-103.37-35.85,76.08-26.24ZM3.51,362.15l-88.3,54.98-15.99-91.16L3.51,362.15ZM18.66,484.44l-.82.46,1.16.14-30.45,73.52-73.67-139.62,103.78,65.49ZM20.45,485.57l.54.34h0s64.1,39.81,64.1,39.81l-95.11,33.44,30.47-73.58ZM156.32,142.18l66.16-58.31-14.42,126.76-.13,1.1-51.61-69.54ZM224.1,83.55l42.53,38.28c-24.01,36.39-49.68,75.24-56.64,85.76l14.11-124.04ZM223.87,79.84l-47.93-114.4c20.14,12.38,55.02,33.9,84.61,52.33l-36.67,62.07ZM221.84,78.98c-8.38.2-62.51,1.5-108.89,2.54l61.3-116.13,47.59,113.59ZM111.19,81.56c-31.08.7-58.35,1.28-65.5,1.33l127.69-119.55.1.23-62.29,118ZM45.58,80.97L57.6-10.7c47.6-10.87,101.19-23.11,113.58-25.94L45.58,80.97ZM43.9,81.69l-.05-.12-.23.57L-20.66,7.16C-14.08,5.67,18.94-1.87,55.97-10.33l-12.07,92.01ZM42.6,83.24l-96.4,31.37L-21.67,8.3,42.6,83.24ZM-55.31,117.3c1.37,5.62,7.96,28.02,36.85,119.85l-.3.75.59.19c.18.56.36,1.13.54,1.7l-129.75-16.52L-55.31,117.3ZM-20.3,240.87l-81.22,82.71-46.05-98.91,127.27,16.2ZM-86.81,419.04L-13.36,558.24l-151.06-96.7-.06-.11,77.67-42.39ZM-12.51,560.5c-41.34-.39-89.69-.77-96.61-.46l-53.79-95.82L-12.51,560.5ZM-12.37,561.91l-53.53,151.49-42.72-152.02c8.04-.25,70.35.28,96.25.53ZM-67.46,713.62l-126.16-72.51,83.6-78.95,42.56,151.46ZM-66.72,715.72l-.37,1.04-105.72,15.24-21.14-89.4,127.22,73.12ZM-173.65,733.64l.44-.16,102.84-14.82-89.94,81.94-.35.32-12.99-67.27ZM-162.34,800.43l-70.63-44.83,57.84-21.41,12.79,66.24ZM-61.96,715.28l122.38-60.8-33.05,78.23-89.33-17.43ZM63.01,653.1l107.62-68.87.61,1.44-53.18,133.07-.61.08-54.44-65.72ZM111.17,721.03l5.58-.71,1.58,1.91.89-2.22,62.37-7.89-56.65,76.05-92.62-52.07,78.85-15.07ZM125.9,789.42l57.15-76.73,47.53,103.98-.35,1.28-104.77-27.09.44-1.45ZM182.39,710.6l-62.57,7.92,52.37-131.05,1.42,2.1,8.77,121.04ZM173.1,586.13l-.19-.46.36-.9.13,1.79-.3-.44ZM171.94,583.4l.28-.18-.17.43-.11-.25ZM171.37,582.04l-.81-1.91,1.9,1.21-1.09.7ZM170.06,582.88l-108.58,69.47-125.76,62.48-.45-.09,54.41-153.98,96.04-33.77-24.53,121.42-70.3-84.35-1.26.84,72.46,86.94,25.2-124.75,80.97,51.57,1.79,4.21ZM88.38,526.06h.02s-1.15-.72-1.15-.72l-1.06-.67v.02s-62.97-39.12-62.97-39.12l111.28,13.8,32.76,76.95-78.88-50.25ZM22.31,484.04l102.46-57.91,9.16,71.75-111.62-13.84ZM135.49,497.76l-9.25-72.47,3.01-1.7,96.2,85.64-89.82-11.14-.14-.32ZM165.69,339.47l43.26,82.3-.1.22c-8.75-.05-36.22-.2-56.49-.2-10.21,0-18.59.04-21.83.15l35.17-82.46ZM166.47,337.65l.87-2.04-.8-1.48,1.01-2.82c38.08-10.93,77.23-22.23,97.94-28.22l-55.71,116.95-43.31-82.39ZM168.14,329.67l40.4-112.61,57.16,84.5c-26.93,7.79-63.29,18.28-97.56,28.11ZM208.49,214.27l.25-.17,107.01-47.43-49.08,133.61-58.18-86.01ZM313.01,51.2c-2.37,3.84-23.13,35.38-45.56,69.37l-43-38.7,37.39-63.3c26.42,16.46,48.31,30.29,51.17,32.63ZM201.09-100.54l114.19,25.66-53.99,91.39c-5.02-3.13-10.5-6.53-16.51-10.26-34.57-21.46-69.66-43.02-70.01-43.23l-.57-.35h.02s.09-.21.09-.21l.73-.69-.39-.12,26.43-62.2ZM199.33-100.36l-26.15,61.55-105.57-32.94,131.73-28.61ZM65.5-70.92l105.42,32.89c-12.1,2.76-65.52,14.97-113.13,25.84l7.71-58.73ZM56.17-11.82C21.3-3.86-10.14,3.32-19.47,5.44L63.79-69.93l-7.62,58.11ZM63.57-71.72L-21.03,4.86l11.67-114.88,72.93,38.29ZM-10.91-110.25L-22.61,4.91l-80.91-93.35L-10.91-110.25ZM-104.87-87.71L-23.73,5.9-176.22-6.35l71.36-81.36ZM-209.56-110.23l103.32,21.81L-177.39-7.29l-32.17-102.94ZM-258.81-50.94L-179.31-5.82l-79.59,36.93.08-82.05ZM-295.04,139.93l34.68-99.04,5.01,207.22-39.69-108.18ZM-253.75,249.22l-5.14-212.61v-3.9s58.34,92.03,58.34,92.03l-53.2,124.48ZM-199.74,122.9l-.02-.04-.07.17-57.67-90.98L-178.73-4.51l-21.01,127.41ZM-198.51,125.3c46.15-3.14,130.15-8.72,142.02-8.92l-92.12,106.05-.2-.43-.04.07-49.66-96.77ZM-148.83,225.61l45.73,98.23-77.42-18.36-.4,1.36,77.7,18.42-71.87,69.34c-1.49-11.46-10.9-83.97-11.62-89.28l37.88-79.72ZM-150.27,225.04l-37.58,79.07-63.98-44.54,101.56-34.54ZM-252.44,260.93l63.72,44.35c-1.98,2.45-7.39,11.73-25.45,46.29-9.89,18.93-19.71,38.08-23.05,44.61l-15.21-135.25ZM-236.94,400.48l70.74,61.49.03.19-70.77,81.56v-143.24ZM-236.82,545.89l70.52-81.28-30.65,170.07-39.88-88.78ZM-196.3,636.11l.67.1,30.99-171.95,54.09,96.36-84.01,79.34-1.73-3.86ZM-186.63,950.12l-50.27-194.65,41.74-111.17,18.37,81.3,1.38,7.17-60.79,22.5,74.05,47-.7.64,1.11-.38.04.03-24.93,147.56ZM-160.24,803.28c15.07,13.23,54.81,47.92,61.78,51.73-3.49,5.83-52.64,59.59-86.82,96.46l25.04-148.19ZM-184.24,952.55c5.57-6.02,24.57-26.56,43.27-47.05,32.37-35.49,41.22-46,43.5-49.37l43.66,62.68-130.43,33.74ZM-91.81,1016.6l39.47-96.02,43.48,44.65-82.96,51.37ZM46.41,1019.84l-52.93-54.34,91.57-56.7-38.64,111.04ZM87.78,905.68l.12-.36-1.84,1.14-.73.33.06.08-92.95,57.56-43.5-44.66,138.3-14.91-97.57-69.76,37.16-95.53,61.37,165.91-.43.19ZM89.54,904.62l-61.86-167.22.72-1.84,95.86,53.89-34.73,115.17ZM91.34,904.07l34.11-113.13,36.66,80.83.04.1-70.81,32.21ZM163.15,870.33l-35.07-77.32,101.78,26.31-.27,1-66.43,50.01ZM203.83,929.17l-38.31-58.78,64.61-48.64,44.58,56.4-70.88,51.02ZM337.98,807.65l-1.12.25-.23-1.89,1.35,1.64ZM337.23,809.26l-61.43,67.88-44.67-56.56.24-.86,2.61.67-1.75-3.82,27.52-100.2.1-.39,14.36,106.22.78-.08.19.68,62.06-13.55ZM335.32,808.23l-59.65,13.02-14.44-106.78,73.56,89.3.53,4.46ZM334.45,801l-73.39-89.1,54.73-67,18.66,156.1ZM314.33,644.31l-54.25,66.41-.38-.46-.24.94h-1.58s-82.72-122.05-82.72-122.05l-.48-6.65,139.65,61.8ZM174.44,579.25l-.1-1.34-.93,2.32-3.87-2.47-33.28-78.18,90.04,11.16-51.87,68.5ZM227.73,509.27l-96.58-85.97c9.51-.24,58.07-.02,77.94.1l70.64,49.38-52,36.5ZM280.91,471.81l-69.63-48.67.1-.04-.71-1.35,56.1-117.76,46.82,134.92-32.68,32.91ZM351.83,289.33l-37.48,147.04-46.64-134.38.56-1.18-.17.05,48.88-133.06,34.84,121.53Z"/>
              <path class="cls-3" d="M223.57,80.35h-.59c-4.13.11-61.8,1.5-110.62,2.6l43.08,58.04,67.41-59.41.73-1.23Z"/>
              <polygon class="cls-3" points="19 485.04 17.84 484.9 18.66 484.44 -85.12 418.95 -11.45 558.57 19 485.04"/>
              <path class="cls-3" d="M175.94-34.56l47.93,114.4,36.67-62.07C230.96-.66,196.07-22.18,175.94-34.56Z"/>
              <polygon class="cls-3" points="20.99 485.89 20.99 485.91 20.45 485.57 -10.02 559.15 85.09 525.71 20.99 485.89"/>
              <path class="cls-3" d="M112.95,81.52c46.38-1.05,100.51-2.34,108.89-2.54l-47.59-113.59-61.3,116.13Z"/>
              <polygon class="cls-3" points="181.6 712.12 119.22 720.01 118.33 722.23 116.75 720.32 111.17 721.03 32.32 736.1 124.95 788.17 181.6 712.12"/>
              <polygon class="cls-3" points="3.79 360.74 -23.51 298.65 -99.59 324.89 3.79 360.74"/>
              <path class="cls-3" d="M99.65,211.46l11.75-128.5c-32.09.72-60.16,1.32-66.38,1.33l54.63,127.17Z"/>
              <polygon class="cls-3" points="-84.79 417.13 3.51 362.15 -100.78 325.98 -84.79 417.13"/>
              <polygon class="cls-3" points="153.91 142.34 154.3 141.99 112.7 85.94 101.11 212.74 153.91 142.34"/>
              <path class="cls-3" d="M-17.54,234.87L42.57,84.75l-96.67,31.46c1.49,6.64,23.39,76.79,36.55,118.66Z"/>
              <path class="cls-3" d="M-24.08,297.34l-.05-.12.34-.06,5.44-55.29,1.56.12-5.4,54.87,63.38-11.69,57.24-68.99-115.43,25.61-.21-.66c-.1-.33-.21-.65-.31-.98l-81.56,83.05,74.98-25.86Z"/>
              <path class="cls-3" d="M45.58,80.97l125.61-117.61c-12.39,2.83-65.98,15.07-113.58,25.94l-12.03,91.66Z"/>
              <path class="cls-3" d="M224.1,83.55l-14.11,124.04c6.96-10.52,32.63-49.37,56.64-85.76l-42.53-38.28Z"/>
              <polygon class="cls-3" points="118.06 718.74 171.24 585.67 170.64 584.23 63.01 653.1 117.46 718.82 118.06 718.74"/>
              <polygon class="cls-3" points="-61.96 715.28 27.37 732.71 60.42 654.49 -61.96 715.28"/>
              <path class="cls-3" d="M43.62,82.13l.23-.57.05.12L55.97-10.33C18.94-1.87-14.08,5.67-20.66,7.16L43.62,82.13Z"/>
              <polygon class="cls-3" points="-53.8 114.62 42.6 83.24 -21.67 8.3 -53.8 114.62"/>
              <path class="cls-3" d="M45.69,82.89c7.14-.05,34.42-.63,65.5-1.33l62.29-118-.1-.23L45.69,82.89Z"/>
              <path class="cls-3" d="M-159.67,801.81c23.58,20.72,58.53,50.78,62.1,52.12l85.58-18.21-.17-.12,38.18-98.16-185.69,64.39Z"/>
              <polygon class="cls-3" points="155.19 143.18 155.07 143.29 101.22 215.11 101.4 215.52 101.09 215.59 130.67 266.72 207.26 213.35 155.19 143.18"/>
              <path class="cls-3" d="M314.5,162.93l-1.11.99-45.62-41.07c-25.43,38.55-52.76,79.9-58.25,88.19l-.98,1.48.05.07,107.9-47.82,35.24-66.32-37.7-46.05c-3.83,6.03-23.85,36.46-45.44,69.2l45.91,41.33Z"/>
              <polygon class="cls-3" points="256.04 711.18 175.38 592.16 184 711.05 231.22 814.36 258.22 716.05 258.53 714.86 257 712.59 186.87 712.14 186.89 710.74 256.04 711.18"/>
              <polygon class="cls-3" points="110.9 719.65 115.69 719.04 62.13 654.39 28.36 734.34 -64.04 716.31 -67.47 718.02 -156.63 799.25 28.61 735.02 28.46 735.4 110.9 719.65"/>
              <polygon class="cls-3" points="259.03 712.89 259.11 712.61 258.84 712.6 259.03 712.89"/>
              <path class="cls-3" d="M66.02,359.57l-59.59,3.04c1.23,3.19,3.53,15,8.44,61.2,2.57,24.18,4.86,48.46,5.67,57.2l45.48-121.44Z"/>
              <polygon class="cls-3" points="44.01 81.93 44.16 82.29 44.49 81.98 44.01 81.93"/>
              <path class="cls-3" d="M19.16,483.03c-4.2-45.98-11.22-113.41-14.2-120.07l-88.63,55.19,102.83,64.88Z"/>
              <path class="cls-3" d="M67.05,357.11c1.92-3.42,8.6-13.39,30.73-44.18,15.75-21.92,31.81-43.91,31.97-44.13l.2-.28-.24-.42-29.72-51.36-.94,1.25.02-.24-56.56,68.18,24.28,70.89c.09.09.17.18.26.28Z"/>
              <path class="cls-3" d="M130.31,270.61c-23.61,32.33-57.65,79.57-61.98,87.24,7.67-1.87,48.8-13.56,94.82-26.76l-32.84-60.49Z"/>
              <path class="cls-3" d="M65.49,357.63l-.15-.24-24.24-70.76-63.1,11.64,27.69,62.98,60.3-3.07c-.32-.34-.49-.53-.51-.54Z"/>
              <path class="cls-3" d="M207.69,214.83l-76.85,53.55,33.82,62.29c.55-.16,1.1-.32,1.65-.47l41.39-115.36Z"/>
              <path class="cls-3" d="M165.71,331.84c-.12.03-.24.07-.36.1l.19.36.17-.46Z"/>
              <path class="cls-3" d="M-16.81,237.2c.31.98.61,1.95.91,2.89l115.19-25.55L43.9,85.59-16.81,237.2Z"/>
              <path class="cls-3" d="M96.54,390.57c-12.13-12.76-24.24-25.67-28.97-30.71l-46.05,122.97,103.05-58.25-.03-.27.62-.06,2.86-1.62c-2.49-2.01-9.51-8.94-31.48-32.06Z"/>
              <path class="cls-3" d="M164.85,334.24l-1.01-1.86c-43.91,12.59-85.56,24.42-94.93,26.72,22.66,24.2,54.77,58.06,60.08,62.49l35.78-83.88-.69-1.31.09-.26.68-1.89Z"/>
              <polygon class="cls-3" points="208.06 210.62 222.48 83.87 156.32 142.18 207.94 211.72 208.06 210.62"/>
              <polygon class="cls-3" points="-10.32 835.11 87.24 904.86 -51.06 919.77 -7.55 964.43 85.4 906.88 85.34 906.79 86.07 906.46 87.91 905.32 87.78 905.68 88.21 905.49 26.84 739.58 -10.32 835.11"/>
              <polygon class="cls-3" points="230.58 816.68 183.05 712.7 125.9 789.42 125.46 790.87 230.23 817.96 230.58 816.68"/>
              <polygon class="cls-3" points="28.4 735.56 27.69 737.4 89.54 904.62 124.27 789.45 28.4 735.56"/>
              <polygon class="cls-3" points="274.99 822.12 274.21 822.2 259.85 715.99 259.75 716.37 232.23 816.57 233.98 820.39 231.36 819.72 231.13 820.57 275.8 877.13 337.23 809.26 275.18 822.8 274.99 822.12"/>
              <path class="cls-3" d="M131.15,423.3l96.58,85.97,52-36.5-70.64-49.38c-19.88-.12-68.43-.34-77.94-.1Z"/>
              <polygon class="cls-3" points="169.55 577.76 173.42 580.23 174.35 577.91 174.44 579.25 226.31 510.75 136.27 499.58 169.55 577.76"/>
              <polygon class="cls-3" points="175.16 589.16 257.88 711.19 259.46 711.2 259.7 710.26 260.08 710.72 314.33 644.31 174.68 582.51 175.16 589.16"/>
              <polygon class="cls-3" points="210.67 421.74 211.38 423.1 211.28 423.14 280.91 471.81 313.59 438.9 266.77 303.99 210.67 421.74"/>
              <polygon class="cls-3" points="268.11 300.86 268.28 300.81 267.72 301.99 314.36 436.37 351.83 289.33 316.99 167.8 268.11 300.86"/>
              <polygon class="cls-3" points="334.45 801 315.79 644.9 261.06 711.91 334.45 801"/>
              <polygon class="cls-3" points="275.66 821.25 335.32 808.23 334.78 803.77 261.22 714.47 275.66 821.25"/>
              <path class="cls-3" d="M208.85,421.99l.1-.22-43.26-82.3-35.17,82.46c3.24-.11,11.62-.15,21.83-.15,20.27,0,47.74.15,56.49.2Z"/>
              <polygon class="cls-3" points="129.25 423.59 126.24 425.29 135.49 497.76 135.63 498.09 225.45 509.22 129.25 423.59"/>
              <polygon class="cls-3" points="22.31 484.04 133.93 497.87 124.76 426.12 22.31 484.04"/>
              <path class="cls-3" d="M224.45,81.87l43,38.7c22.43-34,43.19-65.53,45.56-69.37-2.85-2.33-24.75-16.16-51.17-32.63l-37.39,63.3Z"/>
              <path class="cls-3" d="M208.54,217.06l-40.4,112.61c34.27-9.83,70.63-20.32,97.56-28.11l-57.16-84.5Z"/>
              <polygon class="cls-3" points="315.75 166.67 208.74 214.1 208.49 214.27 266.67 300.28 315.75 166.67"/>
              <path class="cls-3" d="M265.49,303.09c-20.72,5.99-59.86,17.3-97.94,28.22l-1.01,2.82.8,1.48-.87,2.04,43.31,82.39,55.71-116.95Z"/>
              <polygon class="cls-3" points="172.91 585.67 173.1 586.13 173.4 586.56 173.27 584.77 172.91 585.67"/>
              <polygon class="cls-3" points="171.94 583.4 172.05 583.65 172.23 583.22 171.94 583.4"/>
              <polygon class="cls-3" points="119.82 718.52 182.39 710.6 173.62 589.57 172.19 587.47 119.82 718.52"/>
              <polygon class="cls-3" points="171.37 582.04 172.46 581.34 170.55 580.13 171.37 582.04"/>
              <polygon class="cls-3" points="62.1 651.85 -10.36 564.91 -9.1 564.07 61.19 648.42 85.72 527 -10.32 560.77 -64.73 714.74 -64.28 714.83 61.48 652.35 170.06 582.88 168.27 578.67 87.3 527.1 62.1 651.85"/>
              <polygon class="cls-3" points="23.22 485.57 86.19 524.69 86.19 524.67 87.25 525.34 88.4 526.06 88.38 526.06 167.26 576.31 134.5 499.36 23.22 485.57"/>
              <polygon class="cls-3" points="63.57 -71.72 -9.36 -110.02 -21.03 4.86 63.57 -71.72"/>
              <path class="cls-3" d="M175.05-38.23l-.73.69-.09.21h-.02s.57.35.57.35c.35.22,35.44,21.78,70.01,43.23,6.01,3.73,11.48,7.13,16.51,10.26l53.99-91.39-114.19-25.66-26.43,62.2.39.12Z"/>
              <path class="cls-3" d="M56.17-11.82l7.62-58.11L-19.47,5.44C-10.14,3.32,21.3-3.86,56.17-11.82Z"/>
              <path class="cls-2" d="M353.35,98.68l.2-.38-38.97-47.6-.08.05c-1.26-1.43-9.03-6.72-51.92-33.43l55.02-93.12h-.04s18.01-33.77,18.01-33.77l-1.42-.6-18.15,34.02-114.36-25.7.21-.49-.92.2,3.92-8.87-1.46-.52-4.33,9.79-132.01,28.67,35.69-36.34-1.18-.93-36.9,37.57L-9.2-111.56l.06-.55-95.41,22.47-.3-.34-.31.36-106.62-22.5L-179.04-7.33l-79.4-45.07,47.39-55.18-1.24-.86-46.27,53.87,5.94-58.52-1.56-.13-6.16,60.73-.39.45.36.2-.09,88.33-36.22,103.45,41.46,112.99.08,3.48,55.52-129.93,49.74,96.93-105.1,35.74.84.58,15.64,138.97-.15.28.16.14v143.25l-69.05-143.45,51.85-142.19-1.49-.44-52.04,142.7,70.73,146.96-27.59,109.93,25.9,92.71-21.17,261.01,1.56.1,21.18-261.12v-.11s-25.86-92.6-25.86-92.6l26.97-107.73,41.83,93.13-42.86,114.13,51.2,198.26-62.47,61.03,1.16.95,62.03-60.6,39.2,60.48,1.36-.7-39.24-60.53,131.41-34-41.11,99.99,87.18-53.98,54.88,56.36,39.67-113.99,67.16,89.47c-11.95,7.59-29.71,18.68-31.33,19.17l.5,1.33c2.39-.71,29.3-17.8,32.37-19.75l.62-.4-68.43-91.17,1.08-.49.99,2.67,1.09-3.61,74.09-33.7,37.75,57.92c-.03.07-.06.17-.06.29l-45.11,64.04,1.33.75,44.32-62.92c1.58,3.66,7.37,13.53,26.42,41.85,13.88,20.64,28.19,41.21,28.33,41.42l1.33-.74c-21.42-30.77-52.82-77.17-54.94-83.71,9.9,2.38,96.75,28.44,107.79,31.76l-50.17,49.04,1.16.95,51.8-50.64-1.14-.34c-4.06-1.22-94.64-28.44-108.35-31.95l70.11-50.47,34.91,79.84,1.46-.51-35.14-80.36,61.44-67.86-24.68,148.38-.04.23,34.64,56.37,1.38-.68-34.38-55.95,24.98-150.23.63-.14-.51-.62.38-2.26-1.17,1.29-3.04-3.69-18.95-158.56-1.48.14.29-.36.55-.67-141.74-62.72,53.29-70.38,54.03-37.92-.13-.09,31.55-31.77,1.02,196.86-84.29-125.11-1.34.72,87.22,129.47-1.06-203.51.09-.1-.07-.2,38.12-149.57.04-.17-35.54-123.94,35.44-66.69ZM351.73,98.45l-35.24,66.32-107.9,47.82-.05-.07.98-1.48c5.49-8.3,32.82-49.65,58.25-88.19l45.62,41.07,1.11-.99-45.91-41.33c21.6-32.74,41.62-63.16,45.44-69.2l37.7,46.05ZM257,712.59l1.53,2.26-.3,1.19-27.01,98.31-47.22-103.31-8.62-118.88,80.66,119.02-69.15-.44v1.4s70.11.45,70.11.45ZM259.03,712.89l-.19-.29h.26s-.07.29-.07.29ZM-156.63,799.25l89.17-81.23,3.43-1.7,92.39,18.03,33.77-79.95,53.56,64.65-4.79.61-82.43,15.76.15-.39-185.25,64.23ZM-11.11,836.68l.12-.25,94.32,67.44-134.68,14.51,40.23-81.71ZM-52.73,917.73l-43.61-62.63,83.16-17.7-39.55,80.32ZM-12.17,835.58l.17.12-85.58,18.21c-3.57-1.33-38.52-31.4-62.1-52.12l185.69-64.39-38.18,98.16ZM-174.85,396.43l72.56-70.01,15.91,90.73-78.54,42.86-9.93-63.58ZM-166.55,459.71l-70.22-61.04c17.33-33.96,43.17-83.62,48.68-91.83,1.62,12.22,11.53,88.63,11.64,89.45l.2,1.51.03-.03,9.68,61.95ZM-108.68,63.62l-89.53,59.65L-177.2-4.19-108.68,63.62ZM-175.81-4.9L-24.12,7.28l-83.29,55.49L-175.81-4.9ZM-107.62,64.66l50.92,50.39c-4.98.01-20.6.86-70.88,4.12-29.28,1.9-58.82,3.9-68.71,4.57l88.67-59.08ZM-106.36,63.82L-23.36,8.52l-31.97,105.8-51.03-50.5ZM164.65,330.67l-33.82-62.29,76.85-53.55-41.39,115.36c-.55.16-1.1.32-1.65.47ZM165.71,331.84l-.17.46-.19-.36c.12-.04.24-.07.36-.1ZM164.77,337.71l-35.78,83.88c-5.31-4.43-37.42-38.29-60.08-62.49,9.36-2.3,51.02-14.13,94.93-26.72l1.01,1.86-.68,1.89-.09.26.69,1.31ZM125.15,424.24l-.62.06.03.27-103.05,58.25,46.05-122.97c4.73,5.04,16.84,17.95,28.97,30.71,21.97,23.12,28.99,30.05,31.48,32.06l-2.86,1.62ZM99.29,214.54l-115.19,25.55c-.3-.94-.6-1.91-.91-2.89L43.9,85.59l55.39,128.95ZM44.01,81.93l.49.05-.33.31-.15-.36ZM19.16,483.03l-102.83-64.88L4.96,362.96c2.98,6.66,10,74.09,14.2,120.07ZM-22,298.26l63.1-11.64,24.24,70.76.15.24s.19.2.51.54l-60.3,3.07-27.69-62.98ZM14.87,423.81c-4.92-46.2-7.21-58.01-8.44-61.2l59.59-3.04-45.48,121.44c-.81-8.73-3.1-33.01-5.67-57.2ZM42.51,285.94l56.56-68.18-.02.24.94-1.25,29.72,51.36.24.42-.2.28c-.16.22-16.22,22.2-31.97,44.13-22.13,30.79-28.81,40.75-30.73,44.18-.09-.09-.17-.18-.26-.28l-24.28-70.89ZM130.31,270.61l32.84,60.49c-46.02,13.2-87.16,24.89-94.82,26.76,4.33-7.68,38.37-54.92,61.98-87.24ZM101.09,215.59l.31-.07-.18-.41,53.85-71.83.12-.1,52.08,70.17-76.6,53.37-29.58-51.12ZM112.36,82.94c48.83-1.1,106.5-2.48,110.62-2.58h.59s-.73,1.21-.73,1.21l-67.41,59.41-43.08-58.04ZM112.7,85.94l41.6,56.05-.39.35-52.8,70.41,11.6-126.8ZM99.65,211.46l-54.63-127.17c6.22-.01,34.29-.61,66.38-1.33l-11.75,128.5ZM-17.54,234.87c-13.17-41.87-35.07-112.02-36.55-118.66l96.67-31.46L-17.54,234.87ZM-17.51,240.15c.1.33.2.65.31.98l.21.66,115.43-25.61-57.24,68.99-63.38,11.69,5.4-54.87-1.56-.12-5.44,55.29-.34.06.05.12-74.98,25.86L-17.51,240.15ZM-23.51,298.65l27.3,62.09-103.37-35.85,76.08-26.24ZM3.51,362.15l-88.3,54.98-15.99-91.16L3.51,362.15ZM18.66,484.44l-.82.46,1.16.14-30.45,73.52-73.67-139.62,103.78,65.49ZM20.45,485.57l.54.34h0s64.1,39.81,64.1,39.81l-95.11,33.44,30.47-73.58ZM156.32,142.18l66.16-58.31-14.42,126.76-.13,1.1-51.61-69.54ZM224.1,83.55l42.53,38.28c-24.01,36.39-49.68,75.24-56.64,85.76l14.11-124.04ZM223.87,79.84l-47.93-114.4c20.14,12.38,55.02,33.9,84.61,52.33l-36.67,62.07ZM221.84,78.98c-8.38.2-62.51,1.5-108.89,2.54l61.3-116.13,47.59,113.59ZM111.19,81.56c-31.08.7-58.35,1.28-65.5,1.33l127.69-119.55.1.23-62.29,118ZM45.58,80.97L57.6-10.7c47.6-10.87,101.19-23.11,113.58-25.94L45.58,80.97ZM43.9,81.69l-.05-.12-.23.57L-20.66,7.16C-14.08,5.67,18.94-1.87,55.97-10.33l-12.07,92.01ZM42.6,83.24l-96.4,31.37L-21.67,8.3,42.6,83.24ZM-55.31,117.3c1.37,5.62,7.96,28.02,36.85,119.85l-.3.75.59.19c.18.56.36,1.13.54,1.7l-129.75-16.52L-55.31,117.3ZM-20.3,240.87l-81.22,82.71-46.05-98.91,127.27,16.2ZM-86.81,419.04L-13.36,558.24l-151.06-96.7-.06-.11,77.67-42.39ZM-12.51,560.5c-41.34-.39-89.69-.77-96.61-.46l-53.79-95.82L-12.51,560.5ZM-12.37,561.91l-53.53,151.49-42.72-152.02c8.04-.25,70.35.28,96.25.53ZM-67.46,713.62l-126.16-72.51,83.6-78.95,42.56,151.46ZM-66.72,715.72l-.37,1.04-105.72,15.24-21.14-89.4,127.22,73.12ZM-173.65,733.64l.44-.16,102.84-14.82-89.94,81.94-.35.32-12.99-67.27ZM-162.34,800.43l-70.63-44.83,57.84-21.41,12.79,66.24ZM-61.96,715.28l122.38-60.8-33.05,78.23-89.33-17.43ZM63.01,653.1l107.62-68.87.61,1.44-53.18,133.07-.61.08-54.44-65.72ZM111.17,721.03l5.58-.71,1.58,1.91.89-2.22,62.37-7.89-56.65,76.05-92.62-52.07,78.85-15.07ZM125.9,789.42l57.15-76.73,47.53,103.98-.35,1.28-104.77-27.09.44-1.45ZM182.39,710.6l-62.57,7.92,52.37-131.05,1.42,2.1,8.77,121.04ZM173.1,586.13l-.19-.46.36-.9.13,1.79-.3-.44ZM171.94,583.4l.28-.18-.17.43-.11-.25ZM171.37,582.04l-.81-1.91,1.9,1.21-1.09.7ZM170.06,582.88l-108.58,69.47-125.76,62.48-.45-.09,54.41-153.98,96.04-33.77-24.53,121.42-70.3-84.35-1.26.84,72.46,86.94,25.2-124.75,80.97,51.57,1.79,4.21ZM88.38,526.06h.02s-1.15-.72-1.15-.72l-1.06-.67v.02s-62.97-39.12-62.97-39.12l111.28,13.8,32.76,76.95-78.88-50.25ZM22.31,484.04l102.46-57.91,9.16,71.75-111.62-13.84ZM135.49,497.76l-9.25-72.47,3.01-1.7,96.2,85.64-89.82-11.14-.14-.32ZM165.69,339.47l43.26,82.3-.1.22c-8.75-.05-36.22-.2-56.49-.2-10.21,0-18.59.04-21.83.15l35.17-82.46ZM166.47,337.65l.87-2.04-.8-1.48,1.01-2.82c38.08-10.93,77.23-22.23,97.94-28.22l-55.71,116.95-43.31-82.39ZM168.14,329.67l40.4-112.61,57.16,84.5c-26.93,7.79-63.29,18.28-97.56,28.11ZM208.49,214.27l.25-.17,107.01-47.43-49.08,133.61-58.18-86.01ZM313.01,51.2c-2.37,3.84-23.13,35.38-45.56,69.37l-43-38.7,37.39-63.3c26.42,16.46,48.31,30.29,51.17,32.63ZM201.09-100.54l114.19,25.66-53.99,91.39c-5.02-3.13-10.5-6.53-16.51-10.26-34.57-21.46-69.66-43.02-70.01-43.23l-.57-.35h.02s.09-.21.09-.21l.73-.69-.39-.12,26.43-62.2ZM199.33-100.36l-26.15,61.55-105.57-32.94,131.73-28.61ZM65.5-70.92l105.42,32.89c-12.1,2.76-65.52,14.97-113.13,25.84l7.71-58.73ZM56.17-11.82C21.3-3.86-10.14,3.32-19.47,5.44L63.79-69.93l-7.62,58.11ZM63.57-71.72L-21.03,4.86l11.67-114.88,72.93,38.29ZM-10.91-110.25L-22.61,4.91l-80.91-93.35L-10.91-110.25ZM-104.87-87.71L-23.73,5.9-176.22-6.35l71.36-81.36ZM-209.56-110.23l103.32,21.81L-177.39-7.29l-32.17-102.94ZM-258.81-50.94L-179.31-5.82l-79.59,36.93.08-82.05ZM-295.04,139.93l34.68-99.04,5.01,207.22-39.69-108.18ZM-253.75,249.22l-5.14-212.61v-3.9s58.34,92.03,58.34,92.03l-53.2,124.48ZM-199.74,122.9l-.02-.04-.07.17-57.67-90.98L-178.73-4.51l-21.01,127.41ZM-198.51,125.3c46.15-3.14,130.15-8.72,142.02-8.92l-92.12,106.05-.2-.43-.04.07-49.66-96.77ZM-148.83,225.61l45.73,98.23-77.42-18.36-.4,1.36,77.7,18.42-71.87,69.34c-1.49-11.46-10.9-83.97-11.62-89.28l37.88-79.72ZM-150.27,225.04l-37.58,79.07-63.98-44.54,101.56-34.54ZM-252.44,260.93l63.72,44.35c-1.98,2.45-7.39,11.73-25.45,46.29-9.89,18.93-19.71,38.08-23.05,44.61l-15.21-135.25ZM-236.94,400.48l70.74,61.49.03.19-70.77,81.56v-143.24ZM-236.82,545.89l70.52-81.28-30.65,170.07-39.88-88.78ZM-196.3,636.11l.67.1,30.99-171.95,54.09,96.36-84.01,79.34-1.73-3.86ZM-186.63,950.12l-50.27-194.65,41.74-111.17,18.37,81.3,1.38,7.17-60.79,22.5,74.05,47-.7.64,1.11-.38.04.03-24.93,147.56ZM-160.24,803.28c15.07,13.23,54.81,47.92,61.78,51.73-3.49,5.83-52.64,59.59-86.82,96.46l25.04-148.19ZM-184.24,952.55c5.57-6.02,24.57-26.56,43.27-47.05,32.37-35.49,41.22-46,43.5-49.37l43.66,62.68-130.43,33.74ZM-91.81,1016.6l39.47-96.02,43.48,44.65-82.96,51.37ZM46.41,1019.84l-52.93-54.34,91.57-56.7-38.64,111.04ZM87.78,905.68l.12-.36-1.84,1.14-.73.33.06.08-92.95,57.56-43.5-44.66,138.3-14.91-97.57-69.76,37.16-95.53,61.37,165.91-.43.19ZM89.54,904.62l-61.86-167.22.72-1.84,95.86,53.89-34.73,115.17ZM91.34,904.07l34.11-113.13,36.66,80.83.04.1-70.81,32.21ZM163.15,870.33l-35.07-77.32,101.78,26.31-.27,1-66.43,50.01ZM203.83,929.17l-38.31-58.78,64.61-48.64,44.58,56.4-70.88,51.02ZM337.98,807.65l-1.12.25-.23-1.89,1.35,1.64ZM337.23,809.26l-61.43,67.88-44.67-56.56.24-.86,2.61.67-1.75-3.82,27.52-100.2.1-.39,14.36,106.22.78-.08.19.68,62.06-13.55ZM335.32,808.23l-59.65,13.02-14.44-106.78,73.56,89.3.53,4.46ZM334.45,801l-73.39-89.1,54.73-67,18.66,156.1ZM314.33,644.31l-54.25,66.41-.38-.46-.24.94h-1.58s-82.72-122.05-82.72-122.05l-.48-6.65,139.65,61.8ZM174.44,579.25l-.1-1.34-.93,2.32-3.87-2.47-33.28-78.18,90.04,11.16-51.87,68.5ZM227.73,509.27l-96.58-85.97c9.51-.24,58.07-.02,77.94.1l70.64,49.38-52,36.5ZM280.91,471.81l-69.63-48.67.1-.04-.71-1.35,56.1-117.76,46.82,134.92-32.68,32.91ZM351.83,289.33l-37.48,147.04-46.64-134.38.56-1.18-.17.05,48.88-133.06,34.84,121.53Z"/>
            </g>
            <g>
              <path class="cls-5" d="M32.32,484c0,4.76-4.31,8.62-9.64,8.62s-9.63-3.86-9.63-8.62,4.31-8.62,9.63-8.62,9.64,3.86,9.64,8.62Z"/>
              <path class="cls-5" d="M.89,559.91c0,4.76-4.31,8.62-9.63,8.62s-9.64-3.86-9.64-8.62,4.31-8.62,9.64-8.62,9.63,3.86,9.63,8.62Z"/>
              <path class="cls-5" d="M36.95,736.22c0,4.76-4.31,8.62-9.63,8.62s-9.64-3.86-9.64-8.62,4.31-8.62,9.64-8.62,9.63,3.86,9.63,8.62Z"/>
              <path class="cls-5" d="M71.54,652.94c0,4.76-4.31,8.62-9.63,8.62s-9.64-3.86-9.64-8.62,4.31-8.62,9.64-8.62,9.63,3.86,9.63,8.62Z"/>
              <path class="cls-5" d="M126.45,717.06c0,4.76-4.31,8.62-9.63,8.62s-9.64-3.86-9.64-8.62,4.31-8.62,9.64-8.62,9.63,3.86,9.63,8.62Z"/>
              <path class="cls-5" d="M192.33,713.78c0,4.76-4.31,8.62-9.63,8.62s-9.64-3.86-9.64-8.62,4.31-8.62,9.64-8.62,9.63,3.86,9.63,8.62Z"/>
              <path class="cls-5" d="M325.15,644.05c0,4.76-4.31,8.62-9.63,8.62s-9.63-3.86-9.63-8.62,4.31-8.62,9.63-8.62,9.63,3.86,9.63,8.62Z"/>
              <ellipse class="cls-5" cx="173.81" cy="581.34" rx="9.63" ry="8.62"/>
              <path class="cls-5" d="M94.55,529.86c0,4.76-4.31,8.62-9.63,8.62s-9.63-3.86-9.63-8.62,4.31-8.62,9.63-8.62,9.63,3.86,9.63,8.62Z"/>
              <ellipse class="cls-5" cx="225.58" cy="513.95" rx="9.63" ry="8.62"/>
              <path class="cls-5" d="M145.27,498.97c0,4.76-4.31,8.62-9.63,8.62s-9.64-3.86-9.64-8.62,4.31-8.62,9.64-8.62,9.63,3.86,9.63,8.62Z"/>
              <path class="cls-5" d="M139,422.69c0,4.76-4.31,8.62-9.63,8.62s-9.64-3.86-9.64-8.62,4.31-8.62,9.64-8.62,9.63,3.86,9.63,8.62Z"/>
              <path class="cls-5" d="M217.43,425.03c0,4.76-4.31,8.62-9.63,8.62s-9.64-3.86-9.64-8.62,4.31-8.62,9.64-8.62,9.63,3.86,9.63,8.62Z"/>
              <path class="cls-5" d="M292.21,474.17c0,4.76-4.31,8.62-9.63,8.62s-9.63-3.86-9.63-8.62,4.31-8.62,9.63-8.62,9.63,3.86,9.63,8.62Z"/>
              <ellipse class="cls-5" cx="318.65" cy="439.07" rx="9.63" ry="8.62"/>
              <path class="cls-5" d="M280.7,301.95c0,4.76-4.31,8.62-9.63,8.62s-9.63-3.86-9.63-8.62,4.31-8.62,9.63-8.62,9.63,3.86,9.63,8.62Z"/>
              <ellipse class="cls-5" cx="168.06" cy="334.24" rx="9.63" ry="8.62"/>
              <ellipse class="cls-5" cx="67.14" cy="358.81" rx="9.63" ry="8.62"/>
              <path class="cls-5" d="M15.59,364.2c0,4.76-4.31,8.62-9.63,8.62s-9.64-3.86-9.64-8.62,4.31-8.62,9.64-8.62,9.63,3.86,9.63,8.62Z"/>
              <path class="cls-5" d="M55.33,287.44c0,4.76-4.31,8.62-9.63,8.62s-9.63-3.86-9.63-8.62,4.31-8.62,9.63-8.62,9.63,3.86,9.63,8.62Z"/>
              <path class="cls-5" d="M109.98,215.03c0,4.76-4.31,8.62-9.64,8.62s-9.63-3.86-9.63-8.62,4.31-8.62,9.63-8.62,9.64,3.86,9.64,8.62Z"/>
              <path class="cls-5" d="M144.22,266.85c0,4.76-4.31,8.62-9.63,8.62s-9.63-3.86-9.63-8.62,4.31-8.62,9.63-8.62,9.63,3.86,9.63,8.62Z"/>
              <path class="cls-5" d="M215.34,215.38c0,4.76-4.31,8.62-9.63,8.62s-9.63-3.86-9.63-8.62,4.31-8.62,9.63-8.62,9.63,3.86,9.63,8.62Z"/>
              <path class="cls-5" d="M324.1,165.3c0,4.76-4.31,8.62-9.63,8.62s-9.64-3.86-9.64-8.62,4.31-8.62,9.64-8.62,9.63,3.86,9.63,8.62Z"/>
              <path class="cls-5" d="M230.5,82c0,4.76-4.31,8.62-9.63,8.62s-9.63-3.86-9.63-8.62,4.31-8.62,9.63-8.62,9.63,3.86,9.63,8.62Z"/>
              <path class="cls-5" d="M119.13,83.87c0,4.76-4.31,8.62-9.63,8.62s-9.63-3.86-9.63-8.62,4.31-8.62,9.63-8.62,9.63,3.86,9.63,8.62Z"/>
              <ellipse class="cls-5" cx="41.26" cy="83.58" rx="9.63" ry="8.62"/>
              <path class="cls-5" d="M165.93,142.54c0,4.76-4.31,8.62-9.64,8.62s-9.63-3.86-9.63-8.62,4.31-8.62,9.63-8.62,9.64,3.86,9.64,8.62Z"/>
              <ellipse class="cls-5" cx="348.21" cy="97.62" rx="9.63" ry="8.62"/>
              <path class="cls-5" d="M276,125.52c0,4.76-4.31,8.62-9.63,8.62s-9.63-3.86-9.63-8.62,4.31-8.62,9.63-8.62,9.63,3.86,9.63,8.62Z"/>
              <path class="cls-5" d="M272.86,16.95c0,4.76-4.31,8.62-9.63,8.62s-9.63-3.86-9.63-8.62,4.31-8.62,9.63-8.62,9.63,3.86,9.63,8.62Z"/>
              <path class="cls-5" d="M323.48,53.08c0,4.76-4.31,8.62-9.63,8.62s-9.64-3.86-9.64-8.62,4.31-8.62,9.64-8.62,9.63,3.86,9.63,8.62Z"/>
              <path class="cls-5" d="M362.28,289.32c0,4.76-4.31,8.62-9.63,8.62s-9.63-3.86-9.63-8.62,4.31-8.62,9.63-8.62,9.63,3.86,9.63,8.62Z"/>
              <path class="cls-5" d="M269.46,714.48c0,4.76-4.31,8.62-9.63,8.62s-9.63-3.86-9.63-8.62,4.31-8.62,9.63-8.62,9.63,3.86,9.63,8.62Z"/>
            </g>
          </g>
        </g>
      </g>
    </g>
  </g>
</svg>