<?xml version="1.0" encoding="UTF-8"?>
<svg id="_Слой_2" data-name="Слой 2" xmlns="http://www.w3.org/2000/svg" xmlns:xlink="http://www.w3.org/1999/xlink" viewBox="0 0 1944 416">
  <defs>
    <style>
      .cls-1, .cls-2, .cls-3, .cls-4 {
        fill: none;
      }

      .cls-2, .cls-3, .cls-4 {
        stroke: #35388e;
        stroke-miterlimit: 10;
      }

      .cls-2, .cls-5 {
        opacity: .59;
      }

      .cls-3, .cls-6 {
        opacity: .68;
      }

      .cls-7 {
        fill: #35388e;
      }

      .cls-8 {
        opacity: .5;
      }

      .cls-9 {
        clip-path: url(#clippath);
      }
    </style>
    <clipPath id="clippath">
      <rect class="cls-1" width="1944" height="416"/>
    </clipPath>
  </defs>
  <g id="_Слой_1-2" data-name="Слой 1">
    <g class="cls-9">
      <g class="cls-8">
        <g class="cls-6">
          <g class="cls-5">
            <path class="cls-4" d="M84.17,61.43l-.38-.2-47.6,38.97.05.08c-1.43,1.26-6.72,9.03-33.43,51.92l-93.12-55.02v.04s-33.77-18.01-33.77-18.01l-.6,1.42,34.02,18.15-25.7,114.36-.49-.21.2.92-8.87-3.92-.52,1.46,9.79,4.33,28.67,132.01-36.34-35.69-.93,1.18,37.57,36.9-38.79,73.88-.55-.06,22.47,95.41-.34.3.36.31-22.5,106.62,104.8-32.75-45.07,79.4-55.18-47.39-.86,1.24,53.87,46.27-58.52-5.94-.13,1.56,60.73,6.16.45.39.2-.36,88.33.09,103.45,36.22,112.99-41.46,3.48-.08-129.93-55.52,96.93-49.74,35.74,105.1.58-.84,138.97-15.64.28.15.14-.16h143.25l-143.45,69.05-142.19-51.85-.44,1.49,142.7,52.04,146.96-70.73,109.93,27.59,92.71-25.9,261.01,21.17.1-1.56-261.12-21.18h-.11s-92.6,25.86-92.6,25.86l-107.73-26.97,93.13-41.83,114.13,42.86,198.26-51.2,61.03,62.47.95-1.16-60.6-62.03,60.48-39.2-.7-1.36-60.53,39.24-34-131.41,99.99,41.11-53.98-87.18,56.36-54.88-113.99-39.67,89.47-67.16c7.59,11.95,18.68,29.71,19.17,31.33l1.33-.5c-.71-2.39-17.8-29.3-19.75-32.37l-.4-.62-91.17,68.43-.49-1.08,2.67-.99-3.61-1.09-33.7-74.09,57.92-37.75c.07.03.17.06.29.06l64.04,45.11.75-1.33-62.92-44.32c3.66-1.58,13.53-7.37,41.85-26.42,20.64-13.88,41.21-28.19,41.42-28.33l-.74-1.33c-30.77,21.42-77.17,52.82-83.71,54.94,2.38-9.9,28.44-96.75,31.76-107.79l49.04,50.17.95-1.16-50.64-51.8-.34,1.14c-1.22,4.06-28.44,94.64-31.95,108.35l-50.47-70.11,79.84-34.91-.51-1.46-80.36,35.14-67.86-61.44,148.38,24.68.23.04,56.37-34.64-.68-1.38-55.95,34.38-150.23-24.98-.14-.63-.62.51-2.26-.38,1.29,1.17-3.69,3.04-158.56,18.95.14,1.48-.36-.29-.67-.55-62.72,141.74-70.38-53.29-37.92-54.03-.09.13-31.77-31.55,196.86-1.02-125.11,84.29.72,1.34,129.47-87.22-203.51,1.06-.1-.09-.2.07-149.57-38.12-.17-.04-123.94,35.54-66.69-35.44ZM83.94,63.04l66.32,35.24,47.82,107.9-.07.05-1.48-.98c-8.3-5.49-49.65-32.82-88.19-58.25l41.07-45.62-.99-1.11-41.33,45.91c-32.74-21.6-63.16-41.62-69.2-45.44l46.05-37.7ZM698.08,157.78l2.26-1.53,1.19.3,98.31,27.01-103.31,47.22-118.88,8.62,119.02-80.66-.44,69.15h1.4s.45-70.11.45-70.11ZM698.38,155.74l-.29.19v-.26s.29.07.29.07ZM784.74,571.41l-81.23-89.17-1.7-3.43,18.03-92.39-79.95-33.77,64.65-53.56.61,4.79,15.76,82.43-.39-.15,64.23,185.25ZM822.17,425.88l-.25-.12,67.44-94.32,14.51,134.68-81.71-40.23ZM903.22,467.51l-62.63,43.61-17.7-83.16,80.32,39.55ZM821.07,426.94l.12-.17,18.21,85.58c-1.33,3.57-31.4,38.52-52.12,62.1l-64.39-185.69,98.16,38.18ZM381.92,589.63l-70.01-72.56,90.73-15.91,42.86,78.54-63.58,9.93ZM445.2,581.33l-61.04,70.22c-33.96-17.33-83.62-43.17-91.83-48.68,12.22-1.62,88.63-11.53,89.45-11.64l1.51-.2-.03-.03,61.95-9.68ZM49.1,523.46l59.65,89.53-127.45-21.01,67.8-68.52ZM-19.42,590.58l12.18-151.68,55.49,83.29-67.68,68.39ZM50.15,522.4l50.39-50.92c.01,4.98.86,20.6,4.12,70.88,1.9,29.28,3.9,58.82,4.57,68.71l-59.08-88.67ZM49.31,521.14L-5.99,438.13l105.8,31.97-50.5,51.03ZM316.16,250.12l-62.29,33.82-53.55-76.85,115.36,41.39c.16.55.32,1.1.47,1.65ZM317.33,249.06l.46.17-.36.19c-.04-.12-.07-.24-.1-.36ZM323.2,250.01l83.88,35.78c-4.43,5.31-38.29,37.42-62.49,60.08-2.3-9.36-14.13-51.02-26.72-94.93l1.86-1.01,1.89.68.26.09,1.31-.69ZM409.73,289.62l.06.62.27-.03,58.25,103.05-122.97-46.05c5.04-4.73,17.95-16.84,30.71-28.97,23.12-21.97,30.05-28.99,32.06-31.48l1.62,2.86ZM200.03,315.48l25.55,115.19c-.94.3-1.91.6-2.89.91l-151.61-60.71,128.95-55.39ZM67.42,370.77l.05-.49.31.33-.36.15ZM468.52,395.62l-64.88,102.83-55.19-88.63c6.66-2.98,74.09-10,120.07-14.2ZM283.75,436.77l-11.64-63.1,70.76-24.24.24-.15s.2-.19.54-.51l3.07,60.3-62.98,27.69ZM409.3,399.9c-46.2,4.92-58.01,7.21-61.2,8.44l-3.04-59.59,121.44,45.48c-8.73.81-33.01,3.1-57.2,5.67ZM271.43,372.27l-68.18-56.56.24.02-1.25-.94,51.36-29.72.42-.24.28.2c.22.16,22.2,16.22,44.13,31.97,30.79,22.13,40.75,28.81,44.18,30.73-.09.09-.18.17-.28.26l-70.89,24.28ZM256.1,284.47l60.49-32.84c13.2,46.02,24.89,87.16,26.76,94.82-7.68-4.33-54.92-38.37-87.24-61.98ZM201.08,313.69l-.07-.31-.41.18-71.83-53.85-.1-.12,70.17-52.08,53.37,76.6-51.12,29.58ZM68.43,302.42c-1.1-48.83-2.48-106.5-2.58-110.62v-.59s1.21.73,1.21.73l59.41,67.41-58.04,43.08ZM71.43,302.07l56.05-41.6.35.39,70.41,52.8-126.8-11.6ZM196.95,315.13l-127.17,54.63c-.01-6.22-.61-34.29-1.33-66.38l128.5,11.75ZM220.36,432.32c-41.87,13.17-112.02,35.07-118.66,36.55l-31.46-96.67,150.12,60.11ZM225.64,432.29c.33-.1.65-.2.98-.31l.66-.21-25.61-115.43,68.99,57.24,11.69,63.38-54.87-5.4-.12,1.56,55.29,5.44.06.34.12-.05,25.86,74.98-83.05-81.56ZM284.14,438.29l62.09-27.3-35.85,103.37-26.24-76.08ZM347.64,411.26l54.98,88.3-91.16,15.99,36.17-104.29ZM469.92,396.11l.46.82.14-1.16,73.52,30.45-139.62,73.67,65.49-103.78ZM471.06,394.32l.34-.54h-.01s39.82-64.1,39.82-64.1l33.44,95.11-73.58-30.47ZM127.67,258.45l-58.31-66.16,126.76,14.42,1.1.13-69.54,51.61ZM69.03,190.68l38.28-42.53c36.39,24.01,75.24,49.68,85.76,56.64l-124.04-14.11ZM65.32,190.9l-114.4,47.93c12.38-20.14,33.9-55.02,52.33-84.61l62.07,36.67ZM64.47,192.94c.2,8.38,1.5,62.51,2.54,108.89l-116.13-61.3,113.59-47.59ZM67.05,303.58c.7,31.08,1.28,58.35,1.33,65.5l-119.55-127.69.23-.1,118,62.29ZM66.46,369.2l-91.66-12.03c-10.87-47.6-23.11-101.19-25.94-113.58l117.61,125.61ZM67.17,370.87l-.12.05.57.23L-7.35,435.44c-1.5-6.59-9.03-39.6-17.49-76.63l92.01,12.07ZM68.73,372.17l31.37,96.4L-6.21,436.44l74.95-64.27ZM102.78,470.08c5.62-1.37,28.02-7.96,119.85-36.85l.75.3.19-.59c.56-.18,1.13-.36,1.7-.54l-16.52,129.75-105.98-92.07ZM226.36,435.08l82.71,81.22-98.91,46.05,16.2-127.27ZM404.52,501.59l139.2-73.45-96.7,151.06-.11.06-42.39-77.67ZM545.99,427.29c-.39,41.34-.77,89.69-.46,96.61l-95.82,53.79,96.28-150.4ZM547.4,427.14l151.49,53.53-152.02,42.72c-.25-8.04.28-70.35.53-96.25ZM699.11,482.23l-72.51,126.16-78.95-83.6,151.46-42.56ZM701.2,481.5l1.04.37,15.24,105.72-89.4,21.14,73.12-127.22ZM719.13,588.42l-.16-.44-14.82-102.84,81.94,89.94.32.35-67.27,12.99ZM785.91,577.11l-44.83,70.63-21.41-57.84,66.24-12.79ZM700.77,476.74l-60.8-122.38,78.23,33.05-17.43,89.33ZM638.59,351.76l-68.87-107.62,1.44-.61,133.07,53.18.08.61-65.72,54.44ZM706.52,303.61l-.71-5.58,1.91-1.58-2.22-.89-7.89-62.37,76.05,56.65-52.07,92.62-15.07-78.85ZM774.91,288.88l-76.73-57.15,103.98-47.53,1.28.35-27.09,104.77-1.45-.44ZM696.09,232.39l7.92,62.57-131.05-52.37,2.1-1.42,121.04-8.77ZM571.61,241.67l-.46.19-.9-.36,1.79-.13-.44.3ZM568.89,242.83l-.18-.28.43.17-.25.11ZM567.53,243.41l-1.91.81,1.21-1.9.7,1.09ZM568.37,244.72l69.47,108.58,62.48,125.76-.09.45-153.98-54.41-33.77-96.04,121.42,24.53-84.35,70.3.84,1.26,86.94-72.46-124.75-25.2,51.57-80.97,4.21-1.79ZM511.55,326.4v-.02s-.72,1.15-.72,1.15l-.67,1.06h.02s-39.12,62.97-39.12,62.97l13.8-111.28,76.95-32.76-50.25,78.88ZM469.52,392.47l-57.91-102.46,71.75-9.16-13.84,111.62ZM483.25,279.28l-72.47,9.25-1.7-3.01,85.64-96.2-11.14,89.82-.32.14ZM324.96,249.08l82.3-43.26.22.1c-.05,8.75-.2,36.22-.2,56.49,0,10.21.04,18.59.15,21.83l-82.46-35.17ZM323.14,248.31l-2.04-.87-1.48.8-2.82-1.01c-10.93-38.08-22.23-77.23-28.22-97.94l116.95,55.71-82.39,43.31ZM315.16,246.64l-112.61-40.4,84.5-57.16c7.79,26.93,18.28,63.29,28.11,97.56ZM199.76,206.28l-.17-.25-47.43-107.01,133.61,49.08-86.01,58.18ZM36.69,101.77c3.84,2.37,35.38,23.13,69.37,45.56l-38.7,43L4.06,152.93c16.46-26.42,30.29-48.31,32.63-51.17ZM-115.06,213.69l25.66-114.19L2,153.49c-3.13,5.02-6.53,10.5-10.26,16.51-21.46,34.57-43.02,69.66-43.23,70.01l-.35.57v-.02s-.21-.09-.21-.09l-.69-.73-.12.39-62.2-26.43ZM-114.87,215.44l61.55,26.15-32.94,105.57-28.61-131.73ZM-85.43,349.27l32.89-105.42c2.76,12.1,14.97,65.52,25.84,113.13l-58.73-7.71ZM-26.33,358.61c7.96,34.87,15.14,66.31,17.26,75.64l-75.37-83.26,58.11,7.62ZM-86.23,351.21L-9.65,435.81l-114.88-11.67,38.29-72.93ZM-124.76,425.69l115.16,11.7-93.35,80.91-21.81-92.6ZM-102.22,519.64L-8.61,438.51l-12.25,152.49-81.36-71.36ZM-124.74,624.34l21.81-103.32,81.13,71.16-102.94,32.17ZM-65.45,673.58l45.12-79.5,36.93,79.59-82.05-.08ZM125.42,709.82l-99.04-34.68,207.22-5.01-108.18,39.69ZM234.7,668.53l-212.61,5.14h-3.9s92.03-58.34,92.03-58.34l124.48,53.2ZM108.39,614.51l-.04.02.17.07-90.98,57.67-36.56-78.77,127.41,21.01ZM110.78,613.29c-3.14-46.15-8.72-130.15-8.92-142.02l106.05,92.12-.43.2.07.04-96.77,49.66ZM211.1,563.61l98.23-45.73-18.36,77.42,1.36.4,18.42-77.7,69.34,71.87c-11.46,1.49-83.97,10.9-89.28,11.62l-79.72-37.88ZM210.53,565.04l79.07,37.58-44.54,63.98-34.54-101.56ZM246.42,667.22l44.35-63.72c2.45,1.98,11.73,7.39,46.29,25.45,18.93,9.89,38.08,19.71,44.61,23.05l-135.25,15.21ZM385.97,651.71l61.49-70.74.19-.03,81.56,70.77h-143.24ZM531.38,651.6l-81.28-70.52,170.07,30.65-88.78,39.88ZM621.6,611.08l.1-.67-171.95-30.99,96.36-54.09,79.34,84.01-3.86,1.73ZM935.61,601.41l-194.65,50.27-111.17-41.74,81.3-18.37,7.17-1.38,22.5,60.79,47-74.05.64.7-.38-1.11.03-.04,147.56,24.93ZM788.77,575.01c13.23-15.07,47.92-54.81,51.73-61.78,5.83,3.49,59.59,52.64,96.46,86.82l-148.19-25.04ZM938.04,599.02c-6.02-5.57-26.56-24.57-47.05-43.27-35.49-32.37-46-41.22-49.37-43.5l62.68-43.66,33.74,130.43ZM1002.09,506.58l-96.02-39.47,44.65-43.48,51.37,82.96ZM1005.33,368.36l-54.34,52.93-56.7-91.57,111.04,38.64ZM891.17,326.99l-.36-.12,1.14,1.84.33.73.08-.06,57.56,92.95-44.66,43.5-14.91-138.3-69.76,97.57-95.53-37.16,165.91-61.37.19.43ZM890.11,325.23l-167.22,61.86-1.84-.72,53.89-95.86,115.17,34.73ZM889.55,323.44l-113.13-34.11,80.83-36.66.1-.04,32.21,70.81ZM855.82,251.63l-77.32,35.07,26.31-101.78,1,.27,50.01,66.43ZM914.66,210.94l-58.78,38.31-48.64-64.61,56.4-44.58,51.02,70.88ZM793.14,76.8l.25,1.12-1.89.23,1.64-1.35ZM794.74,77.54l67.88,61.43-56.56,44.67-.86-.24.67-2.61-3.82,1.75-100.2-27.52-.39-.1,106.22-14.36-.08-.78.68-.19-13.55-62.06ZM793.72,79.46l13.02,59.65-106.78,14.44,89.3-73.56,4.46-.53ZM786.49,80.32l-89.1,73.39-67-54.73,156.1-18.66ZM629.8,100.45l66.41,54.25-.46.38.94.24v1.58s-122.05,82.72-122.05,82.72l-6.65.48,61.8-139.65ZM564.74,240.33l-1.34.1,2.32.93-2.47,3.87-78.18,33.28,11.16-90.04,68.5,51.87ZM494.76,187.05l-85.97,96.58c-.24-9.51-.02-58.07.1-77.94l49.38-70.64,36.5,52ZM457.3,133.87l-48.67,69.63-.04-.1-1.35.71-117.76-56.1,134.92-46.82,32.91,32.68ZM274.81,62.94l147.04,37.48-134.38,46.64-1.18-.56.05.17-133.06-48.88,121.53-34.84Z"/>
            <path class="cls-4" d="M65.83,191.2v.59c.11,4.13,1.5,61.8,2.6,110.62l58.04-43.08-59.41-67.41-1.23-.73Z"/>
            <polygon class="cls-4" points="470.53 395.78 470.39 396.93 469.92 396.11 404.44 499.9 544.06 426.22 470.53 395.78"/>
            <path class="cls-4" d="M-49.07,238.84l114.4-47.93L3.26,154.23c-18.43,29.58-39.95,64.47-52.33,84.61Z"/>
            <polygon class="cls-4" points="471.38 393.79 471.39 393.78 471.06 394.32 544.64 424.79 511.2 329.68 471.38 393.79"/>
            <path class="cls-4" d="M67.01,301.83c-1.05-46.38-2.34-100.51-2.54-108.89l-113.59,47.59,116.13,61.3Z"/>
            <polygon class="cls-4" points="697.61 233.18 705.5 295.55 707.72 296.44 705.81 298.03 706.52 303.61 721.59 382.45 773.66 289.83 697.61 233.18"/>
            <polygon class="cls-4" points="346.23 410.99 284.14 438.29 310.37 514.36 346.23 410.99"/>
            <path class="cls-4" d="M196.95,315.13l-128.5-11.75c.72,32.09,1.32,60.16,1.33,66.38l127.17-54.63Z"/>
            <polygon class="cls-4" points="402.62 499.57 347.64 411.26 311.47 515.55 402.62 499.57"/>
            <polygon class="cls-4" points="127.83 260.87 127.48 260.47 71.43 302.07 198.23 313.67 127.83 260.87"/>
            <path class="cls-4" d="M220.36,432.32l-150.12-60.11,31.46,96.67c6.64-1.49,76.79-23.39,118.66-36.55Z"/>
            <path class="cls-4" d="M282.83,438.86l-.12.05-.06-.34-55.29-5.44.12-1.56,54.87,5.4-11.69-63.38-68.99-57.24,25.61,115.43-.66.21c-.33.1-.65.21-.98.31l83.05,81.56-25.86-74.98Z"/>
            <path class="cls-4" d="M66.46,369.2l-117.61-125.61c2.83,12.39,15.07,65.98,25.94,113.58l91.66,12.03Z"/>
            <path class="cls-4" d="M69.03,190.68l124.04,14.11c-10.52-6.96-49.37-32.63-85.76-56.64l-38.28,42.53Z"/>
            <polygon class="cls-4" points="704.23 296.71 571.16 243.53 569.72 244.14 638.59 351.76 704.31 297.32 704.23 296.71"/>
            <polygon class="cls-4" points="700.77 476.74 718.2 387.41 639.98 354.36 700.77 476.74"/>
            <path class="cls-4" d="M67.62,371.16l-.57-.23.12-.05-92.01-12.07c8.46,37.04,15.99,70.05,17.49,76.63l74.97-64.28Z"/>
            <polygon class="cls-4" points="100.11 468.57 68.73 372.17 -6.21 436.44 100.11 468.57"/>
            <path class="cls-4" d="M68.38,369.08c-.05-7.14-.63-34.42-1.33-65.5l-118-62.29-.23.1,119.55,127.69Z"/>
            <path class="cls-4" d="M787.3,574.45c20.72-23.58,50.78-58.53,52.12-62.1l-18.21-85.58-.12.17-98.16-38.18,64.39,185.69Z"/>
            <polygon class="cls-4" points="128.67 259.59 128.78 259.71 200.6 313.56 201.01 313.38 201.08 313.69 252.2 284.11 198.84 207.51 128.67 259.59"/>
            <path class="cls-4" d="M148.42,100.27l.99,1.11-41.07,45.62c38.55,25.43,79.9,52.76,88.19,58.25l1.48.98.07-.05-47.82-107.9-66.32-35.24-46.05,37.7c6.03,3.83,36.46,23.85,69.2,45.44l41.33-45.91Z"/>
            <polygon class="cls-4" points="696.67 158.74 577.65 239.4 696.54 230.78 799.85 183.56 701.54 156.55 700.34 156.25 698.08 157.78 697.63 227.9 696.23 227.89 696.67 158.74"/>
            <polygon class="cls-4" points="705.13 303.88 704.53 299.09 639.88 352.64 719.83 386.42 701.8 478.81 703.51 482.24 784.74 571.41 720.51 386.16 720.89 386.31 705.13 303.88"/>
            <polygon class="cls-4" points="698.38 155.74 698.09 155.67 698.09 155.94 698.38 155.74"/>
            <polygon class="cls-4" points="821.92 425.76 822.17 425.88 903.87 466.11 889.36 331.44 821.92 425.76"/>
            <path class="cls-4" d="M345.06,348.75l3.04,59.59c3.19-1.23,15-3.53,61.2-8.44,24.18-2.57,48.46-4.86,57.2-5.67l-121.44-45.48Z"/>
            <polygon class="cls-4" points="67.42 370.77 67.78 370.61 67.47 370.28 67.42 370.77"/>
            <path class="cls-4" d="M468.52,395.62c-45.98,4.2-113.41,11.22-120.07,14.2l55.19,88.63,64.88-102.83Z"/>
            <path class="cls-4" d="M342.6,347.73c-3.42-1.92-13.39-8.6-44.18-30.73-21.92-15.75-43.91-31.81-44.13-31.97l-.28-.2-.42.24-51.36,29.72,1.25.94-.24-.02,68.18,56.56,70.89-24.28c.09-.09.18-.17.28-.26Z"/>
            <path class="cls-4" d="M256.1,284.47c32.33,23.61,79.57,57.65,87.24,61.98-1.87-7.67-13.56-48.8-26.76-94.82l-60.49,32.84Z"/>
            <path class="cls-4" d="M343.11,349.29l-.24.15-70.76,24.24,11.64,63.1,62.98-27.69-3.07-60.3c-.34.32-.53.49-.54.51Z"/>
            <path class="cls-4" d="M200.32,207.08l53.55,76.85,62.29-33.82c-.16-.55-.32-1.1-.47-1.65l-115.36-41.39Z"/>
            <path class="cls-4" d="M317.33,249.06c.03.12.07.24.1.36l.36-.19-.46-.17Z"/>
            <path class="cls-4" d="M222.69,431.59c.98-.31,1.95-.61,2.89-.91l-25.55-115.19-128.95,55.39,151.61,60.71Z"/>
            <path class="cls-4" d="M376.05,318.24c-12.76,12.13-25.67,24.24-30.71,28.97l122.97,46.05-58.25-103.05-.27.03-.06-.62-1.62-2.86c-2.01,2.49-8.94,9.51-32.06,31.48Z"/>
            <path class="cls-4" d="M319.73,249.92l-1.86,1.01c12.59,43.91,24.42,85.56,26.72,94.93,24.2-22.66,58.06-54.77,62.49-60.08l-83.88-35.78-1.31.69-.26-.09-1.89-.68Z"/>
            <polygon class="cls-4" points="196.11 206.71 69.36 192.29 127.67 258.45 197.21 206.84 196.11 206.71"/>
            <polygon class="cls-4" points="820.6 425.1 890.35 327.53 905.26 465.83 949.92 422.33 892.36 329.38 892.28 329.44 891.95 328.7 890.81 326.87 891.17 326.99 890.97 326.56 725.06 387.94 820.6 425.1"/>
            <polygon class="cls-4" points="802.17 184.19 698.18 231.72 774.91 288.88 776.36 289.31 803.45 184.54 802.17 184.19"/>
            <polygon class="cls-4" points="721.05 386.37 722.89 387.09 890.11 325.23 774.93 290.51 721.05 386.37"/>
            <polygon class="cls-4" points="807.61 139.79 807.69 140.56 701.48 154.93 701.86 155.03 802.06 182.55 805.88 180.8 805.2 183.41 806.06 183.65 862.62 138.97 794.74 77.54 808.29 139.6 807.61 139.79"/>
            <path class="cls-4" d="M408.79,283.63l85.97-96.58-36.5-52-49.38,70.64c-.12,19.88-.34,68.43-.1,77.94Z"/>
            <polygon class="cls-4" points="563.25 245.23 565.72 241.36 563.4 240.43 564.74 240.33 496.24 188.47 485.07 278.51 563.25 245.23"/>
            <polygon class="cls-4" points="574.65 239.62 696.68 156.89 696.69 155.31 695.75 155.07 696.21 154.69 629.8 100.45 568 240.1 574.65 239.62"/>
            <polygon class="cls-4" points="407.23 204.1 408.58 203.39 408.63 203.5 457.3 133.87 424.39 101.19 289.48 148.01 407.23 204.1"/>
            <polygon class="cls-4" points="286.35 146.66 286.3 146.49 287.48 147.06 421.86 100.42 274.81 62.94 153.29 97.79 286.35 146.66"/>
            <polygon class="cls-4" points="855.87 249.26 914.66 210.94 863.63 140.07 807.23 184.64 855.87 249.26"/>
            <polygon class="cls-4" points="776.42 289.33 889.55 323.44 857.34 252.63 857.25 252.68 776.42 289.33"/>
            <polygon class="cls-4" points="804.81 184.92 778.5 286.7 855.82 251.63 805.82 185.19 804.81 184.92"/>
            <polygon class="cls-4" points="786.49 80.32 630.39 98.99 697.4 153.72 786.49 80.32"/>
            <polygon class="cls-4" points="793.14 76.8 791.5 78.15 793.38 77.92 793.14 76.8"/>
            <polygon class="cls-4" points="806.74 139.11 793.72 79.46 789.26 79.99 699.96 153.55 806.74 139.11"/>
            <polygon class="cls-4" points="1005.33 368.36 894.29 329.72 950.99 421.29 1005.33 368.36"/>
            <path class="cls-4" d="M407.48,205.93l-.22-.1-82.3,43.26,82.46,35.17c-.11-3.24-.15-11.62-.15-21.83,0-20.27.15-47.74.2-56.49Z"/>
            <polygon class="cls-4" points="409.07 285.52 410.78 288.54 483.25 279.28 483.57 279.15 494.71 189.33 409.07 285.52"/>
            <polygon class="cls-4" points="469.52 392.47 483.36 280.85 411.61 290.01 469.52 392.47"/>
            <path class="cls-4" d="M67.36,190.33l38.7-43c-34-22.43-65.53-43.19-69.37-45.56-2.33,2.85-16.16,24.75-32.63,51.17l63.3,37.39Z"/>
            <path class="cls-4" d="M202.55,206.24l112.61,40.4c-9.83-34.27-20.32-70.63-28.11-97.56l-84.5,57.16Z"/>
            <polygon class="cls-4" points="152.16 99.02 199.59 206.04 199.76 206.28 285.77 148.1 152.16 99.02"/>
            <path class="cls-4" d="M288.58,149.29c5.99,20.72,17.3,59.86,28.22,97.94l2.82,1.01,1.48-.8,2.04.87,82.39-43.31-116.95-55.71Z"/>
            <polygon class="cls-4" points="571.16 241.87 571.61 241.67 572.05 241.38 570.26 241.51 571.16 241.87"/>
            <polygon class="cls-4" points="568.89 242.83 569.14 242.72 568.71 242.55 568.89 242.83"/>
            <polygon class="cls-4" points="704.01 294.96 696.09 232.39 575.06 241.16 572.95 242.58 704.01 294.96"/>
            <polygon class="cls-4" points="567.53 243.41 566.83 242.32 565.62 244.22 567.53 243.41"/>
            <polygon class="cls-4" points="637.34 352.68 550.4 425.14 549.56 423.88 633.91 353.58 512.49 329.05 546.25 425.09 700.23 479.51 700.32 479.06 637.84 353.29 568.37 244.72 564.16 246.51 512.59 327.48 637.34 352.68"/>
            <polygon class="cls-4" points="471.05 391.56 510.17 328.59 510.16 328.58 510.83 327.53 511.55 326.38 511.55 326.4 561.8 247.52 484.85 280.28 471.05 391.56"/>
            <path class="cls-4" d="M-52.74,239.72l.69.73.21.09v.02s.35-.57.35-.57c.22-.35,21.78-35.44,43.23-70.01,3.73-6.01,7.13-11.48,10.26-16.51l-91.39-53.99-25.66,114.19,62.2,26.43.12-.39Z"/>
            <path class="cls-2" d="M84.17,61.43l-.38-.2-47.6,38.97.05.08c-1.43,1.26-6.72,9.03-33.43,51.92l-93.12-55.02v.04s-33.77-18.01-33.77-18.01l-.6,1.42,34.02,18.15-25.7,114.36-.49-.21.2.92-8.87-3.92-.52,1.46,9.79,4.33,28.67,132.01-36.34-35.69-.93,1.18,37.57,36.9-38.79,73.88-.55-.06,22.47,95.41-.34.3.36.31-22.5,106.62,104.8-32.75-45.07,79.4-55.18-47.39-.86,1.24,53.87,46.27-58.52-5.94-.13,1.56,60.73,6.16.45.39.2-.36,88.33.09,103.45,36.22,112.99-41.46,3.48-.08-129.93-55.52,96.93-49.74,35.74,105.1.58-.84,138.97-15.64.28.15.14-.16h143.25l-143.45,69.05-142.19-51.85-.44,1.49,142.7,52.04,146.96-70.73,109.93,27.59,92.71-25.9,261.01,21.17.1-1.56-261.12-21.18h-.11s-92.6,25.86-92.6,25.86l-107.73-26.97,93.13-41.83,114.13,42.86,198.26-51.2,61.03,62.47.95-1.16-60.6-62.03,60.48-39.2-.7-1.36-60.53,39.24-34-131.41,99.99,41.11-53.98-87.18,56.36-54.88-113.99-39.67,89.47-67.16c7.59,11.95,18.68,29.71,19.17,31.33l1.33-.5c-.71-2.39-17.8-29.3-19.75-32.37l-.4-.62-91.17,68.43-.49-1.08,2.67-.99-3.61-1.09-33.7-74.09,57.92-37.75c.07.03.17.06.29.06l64.04,45.11.75-1.33-62.92-44.32c3.66-1.58,13.53-7.37,41.85-26.42,20.64-13.88,41.21-28.19,41.42-28.33l-.74-1.33c-30.77,21.42-77.17,52.82-83.71,54.94,2.38-9.9,28.44-96.75,31.76-107.79l49.04,50.17.95-1.16-50.64-51.8-.34,1.14c-1.22,4.06-28.44,94.64-31.95,108.35l-50.47-70.11,79.84-34.91-.51-1.46-80.36,35.14-67.86-61.44,148.38,24.68.23.04,56.37-34.64-.68-1.38-55.95,34.38-150.23-24.98-.14-.63-.62.51-2.26-.38,1.29,1.17-3.69,3.04-158.56,18.95.14,1.48-.36-.29-.67-.55-62.72,141.74-70.38-53.29-37.92-54.03-.09.13-31.77-31.55,196.86-1.02-125.11,84.29.72,1.34,129.47-87.22-203.51,1.06-.1-.09-.2.07-149.57-38.12-.17-.04-123.94,35.54-66.69-35.44ZM83.94,63.04l66.32,35.24,47.82,107.9-.07.05-1.48-.98c-8.3-5.49-49.65-32.82-88.19-58.25l41.07-45.62-.99-1.11-41.33,45.91c-32.74-21.6-63.16-41.62-69.2-45.44l46.05-37.7ZM698.08,157.78l2.26-1.53,1.19.3,98.31,27.01-103.31,47.22-118.88,8.62,119.02-80.66-.44,69.15h1.4s.45-70.11.45-70.11ZM698.38,155.74l-.29.19v-.26s.29.07.29.07ZM784.74,571.41l-81.23-89.17-1.7-3.43,18.03-92.39-79.95-33.77,64.65-53.56.61,4.79,15.76,82.43-.39-.15,64.23,185.25ZM822.17,425.88l-.25-.12,67.44-94.32,14.51,134.68-81.71-40.23ZM903.22,467.51l-62.63,43.61-17.7-83.16,80.32,39.55ZM821.07,426.94l.12-.17,18.21,85.58c-1.33,3.57-31.4,38.52-52.12,62.1l-64.39-185.69,98.16,38.18ZM381.92,589.63l-70.01-72.56,90.73-15.91,42.86,78.54-63.58,9.93ZM445.2,581.33l-61.04,70.22c-33.96-17.33-83.62-43.17-91.83-48.68,12.22-1.62,88.63-11.53,89.45-11.64l1.51-.2-.03-.03,61.95-9.68ZM49.1,523.46l59.65,89.53-127.45-21.01,67.8-68.52ZM-19.42,590.58l12.18-151.68,55.49,83.29-67.68,68.39ZM50.15,522.4l50.39-50.92c.01,4.98.86,20.6,4.12,70.88,1.9,29.28,3.9,58.82,4.57,68.71l-59.08-88.67ZM49.31,521.14L-5.99,438.13l105.8,31.97-50.5,51.03ZM316.16,250.12l-62.29,33.82-53.55-76.85,115.36,41.39c.16.55.32,1.1.47,1.65ZM317.33,249.06l.46.17-.36.19c-.04-.12-.07-.24-.1-.36ZM323.2,250.01l83.88,35.78c-4.43,5.31-38.29,37.42-62.49,60.08-2.3-9.36-14.13-51.02-26.72-94.93l1.86-1.01,1.89.68.26.09,1.31-.69ZM409.73,289.62l.06.62.27-.03,58.25,103.05-122.97-46.05c5.04-4.73,17.95-16.84,30.71-28.97,23.12-21.97,30.05-28.99,32.06-31.48l1.62,2.86ZM200.03,315.48l25.55,115.19c-.94.3-1.91.6-2.89.91l-151.61-60.71,128.95-55.39ZM67.42,370.77l.05-.49.31.33-.36.15ZM468.52,395.62l-64.88,102.83-55.19-88.63c6.66-2.98,74.09-10,120.07-14.2ZM283.75,436.77l-11.64-63.1,70.76-24.24.24-.15s.2-.19.54-.51l3.07,60.3-62.98,27.69ZM409.3,399.9c-46.2,4.92-58.01,7.21-61.2,8.44l-3.04-59.59,121.44,45.48c-8.73.81-33.01,3.1-57.2,5.67ZM271.43,372.27l-68.18-56.56.24.02-1.25-.94,51.36-29.72.42-.24.28.2c.22.16,22.2,16.22,44.13,31.97,30.79,22.13,40.75,28.81,44.18,30.73-.09.09-.18.17-.28.26l-70.89,24.28ZM256.1,284.47l60.49-32.84c13.2,46.02,24.89,87.16,26.76,94.82-7.68-4.33-54.92-38.37-87.24-61.98ZM201.08,313.69l-.07-.31-.41.18-71.83-53.85-.1-.12,70.17-52.08,53.37,76.6-51.12,29.58ZM68.43,302.42c-1.1-48.83-2.48-106.5-2.58-110.62v-.59s1.21.73,1.21.73l59.41,67.41-58.04,43.08ZM71.43,302.07l56.05-41.6.35.39,70.41,52.8-126.8-11.6ZM196.95,315.13l-127.17,54.63c-.01-6.22-.61-34.29-1.33-66.38l128.5,11.75ZM220.36,432.32c-41.87,13.17-112.02,35.07-118.66,36.55l-31.46-96.67,150.12,60.11ZM225.64,432.29c.33-.1.65-.2.98-.31l.66-.21-25.61-115.43,68.99,57.24,11.69,63.38-54.87-5.4-.12,1.56,55.29,5.44.06.34.12-.05,25.86,74.98-83.05-81.56ZM284.14,438.29l62.09-27.3-35.85,103.37-26.24-76.08ZM347.64,411.26l54.98,88.3-91.16,15.99,36.17-104.29ZM469.92,396.11l.46.82.14-1.16,73.52,30.45-139.62,73.67,65.49-103.78ZM471.06,394.32l.34-.54h-.01s39.82-64.1,39.82-64.1l33.44,95.11-73.58-30.47ZM127.67,258.45l-58.31-66.16,126.76,14.42,1.1.13-69.54,51.61ZM69.03,190.68l38.28-42.53c36.39,24.01,75.24,49.68,85.76,56.64l-124.04-14.11ZM65.32,190.9l-114.4,47.93c12.38-20.14,33.9-55.02,52.33-84.61l62.07,36.67ZM64.47,192.94c.2,8.38,1.5,62.51,2.54,108.89l-116.13-61.3,113.59-47.59ZM67.05,303.58c.7,31.08,1.28,58.35,1.33,65.5l-119.55-127.69.23-.1,118,62.29ZM66.46,369.2l-91.66-12.03c-10.87-47.6-23.11-101.19-25.94-113.58l117.61,125.61ZM67.17,370.87l-.12.05.57.23L-7.35,435.44c-1.5-6.59-9.03-39.6-17.49-76.63l92.01,12.07ZM68.73,372.17l31.37,96.4L-6.21,436.44l74.95-64.27ZM102.78,470.08c5.62-1.37,28.02-7.96,119.85-36.85l.75.3.19-.59c.56-.18,1.13-.36,1.7-.54l-16.52,129.75-105.98-92.07ZM226.36,435.08l82.71,81.22-98.91,46.05,16.2-127.27ZM404.52,501.59l139.2-73.45-96.7,151.06-.11.06-42.39-77.67ZM545.99,427.29c-.39,41.34-.77,89.69-.46,96.61l-95.82,53.79,96.28-150.4ZM547.4,427.14l151.49,53.53-152.02,42.72c-.25-8.04.28-70.35.53-96.25ZM699.11,482.23l-72.51,126.16-78.95-83.6,151.46-42.56ZM701.2,481.5l1.04.37,15.24,105.72-89.4,21.14,73.12-127.22ZM719.13,588.42l-.16-.44-14.82-102.84,81.94,89.94.32.35-67.27,12.99ZM785.91,577.11l-44.83,70.63-21.41-57.84,66.24-12.79ZM700.77,476.74l-60.8-122.38,78.23,33.05-17.43,89.33ZM638.59,351.76l-68.87-107.62,1.44-.61,133.07,53.18.08.61-65.72,54.44ZM706.52,303.61l-.71-5.58,1.91-1.58-2.22-.89-7.89-62.37,76.05,56.65-52.07,92.62-15.07-78.85ZM774.91,288.88l-76.73-57.15,103.98-47.53,1.28.35-27.09,104.77-1.45-.44ZM696.09,232.39l7.92,62.57-131.05-52.37,2.1-1.42,121.04-8.77ZM571.61,241.67l-.46.19-.9-.36,1.79-.13-.44.3ZM568.89,242.83l-.18-.28.43.17-.25.11ZM567.53,243.41l-1.91.81,1.21-1.9.7,1.09ZM568.37,244.72l69.47,108.58,62.48,125.76-.09.45-153.98-54.41-33.77-96.04,121.42,24.53-84.35,70.3.84,1.26,86.94-72.46-124.75-25.2,51.57-80.97,4.21-1.79ZM511.55,326.4v-.02s-.72,1.15-.72,1.15l-.67,1.06h.02s-39.12,62.97-39.12,62.97l13.8-111.28,76.95-32.76-50.25,78.88ZM469.52,392.47l-57.91-102.46,71.75-9.16-13.84,111.62ZM483.25,279.28l-72.47,9.25-1.7-3.01,85.64-96.2-11.14,89.82-.32.14ZM324.96,249.08l82.3-43.26.22.1c-.05,8.75-.2,36.22-.2,56.49,0,10.21.04,18.59.15,21.83l-82.46-35.17ZM323.14,248.31l-2.04-.87-1.48.8-2.82-1.01c-10.93-38.08-22.23-77.23-28.22-97.94l116.95,55.71-82.39,43.31ZM315.16,246.64l-112.61-40.4,84.5-57.16c7.79,26.93,18.28,63.29,28.11,97.56ZM199.76,206.28l-.17-.25-47.43-107.01,133.61,49.08-86.01,58.18ZM36.69,101.77c3.84,2.37,35.38,23.13,69.37,45.56l-38.7,43L4.06,152.93c16.46-26.42,30.29-48.31,32.63-51.17ZM-115.06,213.69l25.66-114.19L2,153.49c-3.13,5.02-6.53,10.5-10.26,16.51-21.46,34.57-43.02,69.66-43.23,70.01l-.35.57v-.02s-.21-.09-.21-.09l-.69-.73-.12.39-62.2-26.43ZM-114.87,215.44l61.55,26.15-32.94,105.57-28.61-131.73ZM-85.43,349.27l32.89-105.42c2.76,12.1,14.97,65.52,25.84,113.13l-58.73-7.71ZM-26.33,358.61c7.96,34.87,15.14,66.31,17.26,75.64l-75.37-83.26,58.11,7.62ZM-86.23,351.21L-9.65,435.81l-114.88-11.67,38.29-72.93ZM-124.76,425.69l115.16,11.7-93.35,80.91-21.81-92.6ZM-102.22,519.64L-8.61,438.51l-12.25,152.49-81.36-71.36ZM-124.74,624.34l21.81-103.32,81.13,71.16-102.94,32.17ZM-65.45,673.58l45.12-79.5,36.93,79.59-82.05-.08ZM125.42,709.82l-99.04-34.68,207.22-5.01-108.18,39.69ZM234.7,668.53l-212.61,5.14h-3.9s92.03-58.34,92.03-58.34l124.48,53.2ZM108.39,614.51l-.04.02.17.07-90.98,57.67-36.56-78.77,127.41,21.01ZM110.78,613.29c-3.14-46.15-8.72-130.15-8.92-142.02l106.05,92.12-.43.2.07.04-96.77,49.66ZM211.1,563.61l98.23-45.73-18.36,77.42,1.36.4,18.42-77.7,69.34,71.87c-11.46,1.49-83.97,10.9-89.28,11.62l-79.72-37.88ZM210.53,565.04l79.07,37.58-44.54,63.98-34.54-101.56ZM246.42,667.22l44.35-63.72c2.45,1.98,11.73,7.39,46.29,25.45,18.93,9.89,38.08,19.71,44.61,23.05l-135.25,15.21ZM385.97,651.71l61.49-70.74.19-.03,81.56,70.77h-143.24ZM531.38,651.6l-81.28-70.52,170.07,30.65-88.78,39.88ZM621.6,611.08l.1-.67-171.95-30.99,96.36-54.09,79.34,84.01-3.86,1.73ZM935.61,601.41l-194.65,50.27-111.17-41.74,81.3-18.37,7.17-1.38,22.5,60.79,47-74.05.64.7-.38-1.11.03-.04,147.56,24.93ZM788.77,575.01c13.23-15.07,47.92-54.81,51.73-61.78,5.83,3.49,59.59,52.64,96.46,86.82l-148.19-25.04ZM938.04,599.02c-6.02-5.57-26.56-24.57-47.05-43.27-35.49-32.37-46-41.22-49.37-43.5l62.68-43.66,33.74,130.43ZM1002.09,506.58l-96.02-39.47,44.65-43.48,51.37,82.96ZM1005.33,368.36l-54.34,52.93-56.7-91.57,111.04,38.64ZM891.17,326.99l-.36-.12,1.14,1.84.33.73.08-.06,57.56,92.95-44.66,43.5-14.91-138.3-69.76,97.57-95.53-37.16,165.91-61.37.19.43ZM890.11,325.23l-167.22,61.86-1.84-.72,53.89-95.86,115.17,34.73ZM889.55,323.44l-113.13-34.11,80.83-36.66.1-.04,32.21,70.81ZM855.82,251.63l-77.32,35.07,26.31-101.78,1,.27,50.01,66.43ZM914.66,210.94l-58.78,38.31-48.64-64.61,56.4-44.58,51.02,70.88ZM793.14,76.8l.25,1.12-1.89.23,1.64-1.35ZM794.74,77.54l67.88,61.43-56.56,44.67-.86-.24.67-2.61-3.82,1.75-100.2-27.52-.39-.1,106.22-14.36-.08-.78.68-.19-13.55-62.06ZM793.72,79.46l13.02,59.65-106.78,14.44,89.3-73.56,4.46-.53ZM786.49,80.32l-89.1,73.39-67-54.73,156.1-18.66ZM629.8,100.45l66.41,54.25-.46.38.94.24v1.58s-122.05,82.72-122.05,82.72l-6.65.48,61.8-139.65ZM564.74,240.33l-1.34.1,2.32.93-2.47,3.87-78.18,33.28,11.16-90.04,68.5,51.87ZM494.76,187.05l-85.97,96.58c-.24-9.51-.02-58.07.1-77.94l49.38-70.64,36.5,52ZM457.3,133.87l-48.67,69.63-.04-.1-1.35.71-117.76-56.1,134.92-46.82,32.91,32.68ZM274.81,62.94l147.04,37.48-134.38,46.64-1.18-.56.05.17-133.06-48.88,121.53-34.84Z"/>
          </g>
          <g>
            <path class="cls-7" d="M469.49,382.45c4.76,0,8.62,4.31,8.62,9.64s-3.86,9.63-8.62,9.63-8.62-4.31-8.62-9.63,3.86-9.64,8.62-9.64Z"/>
            <path class="cls-7" d="M545.4,413.89c4.76,0,8.62,4.31,8.62,9.63s-3.86,9.64-8.62,9.64-8.62-4.31-8.62-9.64,3.86-9.63,8.62-9.63Z"/>
            <path class="cls-7" d="M721.71,377.83c4.76,0,8.62,4.31,8.62,9.63s-3.86,9.64-8.62,9.64-8.62-4.31-8.62-9.64,3.86-9.63,8.62-9.63Z"/>
            <path class="cls-7" d="M638.43,343.23c4.76,0,8.62,4.31,8.62,9.63s-3.86,9.64-8.62,9.64-8.62-4.31-8.62-9.64,3.86-9.63,8.62-9.63Z"/>
            <path class="cls-7" d="M702.55,288.33c4.76,0,8.62,4.31,8.62,9.63s-3.86,9.64-8.62,9.64-8.62-4.31-8.62-9.64,3.86-9.63,8.62-9.63Z"/>
            <ellipse class="cls-7" cx="777.42" cy="288.03" rx="8.62" ry="9.63"/>
            <ellipse class="cls-7" cx="889.74" cy="325.68" rx="8.62" ry="9.63"/>
            <path class="cls-7" d="M948.71,411.74c4.76,0,8.62,4.31,8.62,9.63s-3.86,9.64-8.62,9.64-8.62-4.31-8.62-9.64,3.86-9.63,8.62-9.63Z"/>
            <path class="cls-7" d="M1002.06,357.35c4.76,0,8.62,4.31,8.62,9.63s-3.86,9.64-8.62,9.64-8.62-4.31-8.62-9.64,3.86-9.63,8.62-9.63Z"/>
            <ellipse class="cls-7" cx="983.81" cy="259.79" rx="8.62" ry="9.63"/>
            <path class="cls-7" d="M917.82,202.57c4.76,0,8.62,4.31,8.62,9.63s-3.86,9.63-8.62,9.63-8.62-4.31-8.62-9.63,3.86-9.63,8.62-9.63Z"/>
            <path class="cls-7" d="M856.05,245.45c4.76,0,8.62,4.31,8.62,9.63s-3.86,9.63-8.62,9.63-8.62-4.31-8.62-9.63,3.86-9.63,8.62-9.63Z"/>
            <ellipse class="cls-7" cx="804.1" cy="187.63" rx="8.62" ry="9.63"/>
            <path class="cls-7" d="M861.9,130.67c4.76,0,8.62,4.31,8.62,9.63s-3.86,9.64-8.62,9.64-8.62-4.31-8.62-9.64,3.86-9.63,8.62-9.63Z"/>
            <path class="cls-7" d="M810.65,131.46c4.76,0,8.62,4.31,8.62,9.63s-3.86,9.64-8.62,9.64-8.62-4.31-8.62-9.64,3.86-9.63,8.62-9.63Z"/>
            <ellipse class="cls-7" cx="948" cy="101.35" rx="8.62" ry="9.63"/>
            <ellipse class="cls-7" cx="1000.65" cy="158.87" rx="8.62" ry="9.63"/>
            <path class="cls-7" d="M793.8,65.57c4.76,0,8.62,4.31,8.62,9.63s-3.86,9.64-8.62,9.64-8.62-4.31-8.62-9.64,3.86-9.63,8.62-9.63Z"/>
            <path class="cls-7" d="M699.27,222.44c4.76,0,8.62,4.31,8.62,9.63s-3.86,9.64-8.62,9.64-8.62-4.31-8.62-9.64,3.86-9.63,8.62-9.63Z"/>
            <path class="cls-7" d="M629.54,89.63c4.76,0,8.62,4.31,8.62,9.63s-3.86,9.63-8.62,9.63-8.62-4.31-8.62-9.63,3.86-9.63,8.62-9.63Z"/>
            <ellipse class="cls-7" cx="566.83" cy="240.97" rx="8.62" ry="9.63"/>
            <path class="cls-7" d="M515.35,320.23c4.76,0,8.62,4.31,8.62,9.63s-3.86,9.63-8.62,9.63-8.62-4.31-8.62-9.63,3.86-9.63,8.62-9.63Z"/>
            <ellipse class="cls-7" cx="499.44" cy="189.2" rx="8.62" ry="9.63"/>
            <path class="cls-7" d="M484.46,269.51c4.76,0,8.62,4.31,8.62,9.63s-3.86,9.64-8.62,9.64-8.62-4.31-8.62-9.64,3.86-9.63,8.62-9.63Z"/>
            <path class="cls-7" d="M408.18,275.78c4.76,0,8.62,4.31,8.62,9.63s-3.86,9.64-8.62,9.64-8.62-4.31-8.62-9.64,3.86-9.63,8.62-9.63Z"/>
            <path class="cls-7" d="M410.52,197.34c4.76,0,8.62,4.31,8.62,9.63s-3.86,9.64-8.62,9.64-8.62-4.31-8.62-9.64,3.86-9.63,8.62-9.63Z"/>
            <path class="cls-7" d="M459.66,122.57c4.76,0,8.62,4.31,8.62,9.63s-3.86,9.63-8.62,9.63-8.62-4.31-8.62-9.63,3.86-9.63,8.62-9.63Z"/>
            <ellipse class="cls-7" cx="424.56" cy="96.12" rx="8.62" ry="9.63"/>
            <path class="cls-7" d="M287.44,134.07c4.76,0,8.62,4.31,8.62,9.63s-3.86,9.63-8.62,9.63-8.62-4.31-8.62-9.63,3.86-9.63,8.62-9.63Z"/>
            <ellipse class="cls-7" cx="319.73" cy="246.72" rx="8.62" ry="9.63"/>
            <ellipse class="cls-7" cx="344.3" cy="347.64" rx="8.62" ry="9.63"/>
            <path class="cls-7" d="M349.68,399.19c4.76,0,8.62,4.31,8.62,9.63s-3.86,9.64-8.62,9.64-8.62-4.31-8.62-9.64,3.86-9.63,8.62-9.63Z"/>
            <path class="cls-7" d="M272.93,359.45c4.76,0,8.62,4.31,8.62,9.63s-3.86,9.63-8.62,9.63-8.62-4.31-8.62-9.63,3.86-9.63,8.62-9.63Z"/>
            <path class="cls-7" d="M200.52,304.8c4.76,0,8.62,4.31,8.62,9.64s-3.86,9.63-8.62,9.63-8.62-4.31-8.62-9.63,3.86-9.64,8.62-9.64Z"/>
            <path class="cls-7" d="M252.34,270.55c4.76,0,8.62,4.31,8.62,9.63s-3.86,9.63-8.62,9.63-8.62-4.31-8.62-9.63,3.86-9.63,8.62-9.63Z"/>
            <path class="cls-7" d="M200.86,199.44c4.76,0,8.62,4.31,8.62,9.63s-3.86,9.63-8.62,9.63-8.62-4.31-8.62-9.63,3.86-9.63,8.62-9.63Z"/>
            <path class="cls-7" d="M150.79,90.67c4.76,0,8.62,4.31,8.62,9.63s-3.86,9.64-8.62,9.64-8.62-4.31-8.62-9.64,3.86-9.63,8.62-9.63Z"/>
            <path class="cls-7" d="M67.49,184.27c4.76,0,8.62,4.31,8.62,9.63s-3.86,9.63-8.62,9.63-8.62-4.31-8.62-9.63,3.86-9.63,8.62-9.63Z"/>
            <path class="cls-7" d="M69.36,295.65c4.76,0,8.62,4.31,8.62,9.63s-3.86,9.63-8.62,9.63-8.62-4.31-8.62-9.63,3.86-9.63,8.62-9.63Z"/>
            <ellipse class="cls-7" cx="69.07" cy="373.52" rx="8.62" ry="9.63"/>
            <path class="cls-7" d="M128.03,248.84c4.76,0,8.62,4.31,8.62,9.64s-3.86,9.63-8.62,9.63-8.62-4.31-8.62-9.63,3.86-9.64,8.62-9.64Z"/>
            <ellipse class="cls-7" cx="83.11" cy="66.57" rx="8.62" ry="9.63"/>
            <path class="cls-7" d="M111.01,138.78c4.76,0,8.62,4.31,8.62,9.63s-3.86,9.63-8.62,9.63-8.62-4.31-8.62-9.63,3.86-9.63,8.62-9.63Z"/>
            <path class="cls-7" d="M2.44,141.92c4.76,0,8.62,4.31,8.62,9.63s-3.86,9.63-8.62,9.63-8.62-4.31-8.62-9.63,3.86-9.63,8.62-9.63Z"/>
            <path class="cls-7" d="M38.57,91.3c4.76,0,8.62,4.31,8.62,9.63s-3.86,9.64-8.62,9.64-8.62-4.31-8.62-9.64,3.86-9.63,8.62-9.63Z"/>
            <path class="cls-7" d="M274.81,52.5c4.76,0,8.62,4.31,8.62,9.63s-3.86,9.63-8.62,9.63-8.62-4.31-8.62-9.63,3.86-9.63,8.62-9.63Z"/>
            <path class="cls-7" d="M699.97,145.32c4.76,0,8.62,4.31,8.62,9.63s-3.86,9.63-8.62,9.63-8.62-4.31-8.62-9.63,3.86-9.63,8.62-9.63Z"/>
          </g>
        </g>
        <g class="cls-6">
          <g class="cls-5">
            <path class="cls-4" d="M1209.06,47.74l-.38-.2-47.6,38.97.05.08c-1.43,1.26-6.72,9.03-33.43,51.92l-93.12-55.02v.04s-33.77-18.01-33.77-18.01l-.6,1.42,34.02,18.15-25.7,114.36-.49-.21.2.92-8.87-3.92-.52,1.46,9.79,4.33,28.67,132.01-36.34-35.69-.93,1.18,37.57,36.9-38.79,73.88-.55-.06,22.47,95.41-.34.3.36.31-22.5,106.62,104.8-32.75-45.07,79.4-55.18-47.39-.86,1.24,53.87,46.27-58.52-5.94-.13,1.56,60.73,6.16.45.39.2-.36,88.33.09,103.45,36.22,112.99-41.46,3.48-.08-129.93-55.52,96.93-49.74,35.74,105.1.58-.84,138.97-15.64.28.15.14-.16h143.25l-143.45,69.05-142.19-51.85-.44,1.49,142.7,52.04,146.96-70.73,109.93,27.59,92.71-25.9,261.01,21.17.1-1.56-261.12-21.18h-.11s-92.6,25.86-92.6,25.86l-107.73-26.97,93.13-41.83,114.13,42.86,198.26-51.2,61.03,62.47.95-1.16-60.6-62.03,60.48-39.2-.7-1.36-60.53,39.24-34-131.41,99.99,41.11-53.98-87.18,56.36-54.88-113.99-39.67,89.47-67.16c7.59,11.95,18.68,29.71,19.17,31.33l1.33-.5c-.71-2.39-17.8-29.3-19.75-32.37l-.4-.62-91.17,68.43-.49-1.08,2.67-.99-3.61-1.09-33.7-74.09,57.92-37.75c.07.03.17.06.29.06l64.04,45.11.75-1.33-62.92-44.32c3.66-1.58,13.53-7.37,41.85-26.42,20.64-13.88,41.21-28.19,41.42-28.33l-.74-1.33c-30.77,21.42-77.17,52.82-83.71,54.94,2.38-9.9,28.44-96.75,31.76-107.79l49.04,50.17.95-1.16-50.64-51.8-.34,1.14c-1.22,4.06-28.44,94.64-31.95,108.35l-50.47-70.11,79.84-34.91-.51-1.46-80.36,35.14-67.86-61.44,148.38,24.68.23.04,56.37-34.64-.68-1.38-55.95,34.38-150.23-24.98-.14-.63-.62.51-2.26-.38,1.29,1.17-3.69,3.04-158.56,18.95.14,1.48-.36-.29-.67-.55-62.72,141.74-70.38-53.29-37.92-54.03-.09.13-31.77-31.55,196.86-1.02-125.11,84.29.72,1.34,129.47-87.22-203.51,1.06-.1-.09-.2.07-149.57-38.12-.17-.04-123.94,35.54-66.69-35.44ZM1208.83,49.36l66.32,35.24,47.82,107.9-.07.05-1.48-.98c-8.3-5.49-49.65-32.82-88.19-58.25l41.07-45.62-.99-1.11-41.33,45.91c-32.74-21.6-63.16-41.62-69.2-45.44l46.05-37.7ZM1822.97,144.09l2.26-1.53,1.19.3,98.31,27.01-103.31,47.22-118.88,8.62,119.02-80.66-.44,69.15h1.4s.45-70.11.45-70.11ZM1823.27,142.05l-.29.19v-.26s.29.07.29.07ZM1909.63,557.72l-81.23-89.17-1.7-3.43,18.03-92.39-79.95-33.77,64.65-53.56.61,4.79,15.76,82.43-.39-.15,64.23,185.25ZM1947.06,412.19l-.25-.12,67.44-94.32,14.51,134.68-81.71-40.23ZM2028.11,453.82l-62.63,43.61-17.7-83.16,80.32,39.55ZM1945.96,413.26l.12-.17,18.21,85.58c-1.33,3.57-31.4,38.52-52.12,62.1l-64.39-185.69,98.16,38.18ZM1506.81,575.94l-70.01-72.56,90.73-15.91,42.86,78.54-63.58,9.93ZM1570.09,567.64l-61.04,70.22c-33.96-17.33-83.62-43.17-91.83-48.68,12.22-1.62,88.63-11.53,89.45-11.64l1.51-.2-.03-.03,61.95-9.68ZM1173.99,509.77l59.65,89.53-127.45-21.01,67.8-68.52ZM1105.47,576.9l12.18-151.68,55.49,83.29-67.68,68.39ZM1175.04,508.71l50.39-50.92c.01,4.98.86,20.6,4.12,70.88,1.9,29.28,3.9,58.82,4.57,68.71l-59.08-88.67ZM1174.2,507.45l-55.3-83,105.8,31.97-50.5,51.03ZM1441.05,236.43l-62.29,33.82-53.55-76.85,115.36,41.39c.16.55.32,1.1.47,1.65ZM1442.22,235.38l.46.17-.36.19c-.04-.12-.07-.24-.1-.36ZM1448.09,236.32l83.88,35.78c-4.43,5.31-38.29,37.42-62.49,60.08-2.3-9.36-14.13-51.02-26.72-94.93l1.86-1.01,1.89.68.26.09,1.31-.69ZM1534.62,275.93l.06.62.27-.03,58.25,103.05-122.97-46.05c5.04-4.73,17.95-16.84,30.71-28.97,23.12-21.97,30.05-28.99,32.06-31.48l1.62,2.86ZM1324.92,301.79l25.55,115.19c-.94.3-1.91.6-2.89.91l-151.61-60.71,128.95-55.39ZM1192.31,357.08l.05-.49.31.33-.36.15ZM1593.41,381.93l-64.88,102.83-55.19-88.63c6.66-2.98,74.09-10,120.07-14.2ZM1408.64,423.08l-11.64-63.1,70.76-24.24.24-.15s.2-.19.54-.51l3.07,60.3-62.98,27.69ZM1534.19,386.21c-46.2,4.92-58.01,7.21-61.2,8.44l-3.04-59.59,121.44,45.48c-8.73.81-33.01,3.1-57.2,5.67ZM1396.32,358.58l-68.18-56.56.24.02-1.25-.94,51.36-29.72.42-.24.28.2c.22.16,22.2,16.22,44.13,31.97,30.79,22.13,40.75,28.81,44.18,30.73-.09.09-.18.17-.28.26l-70.89,24.28ZM1380.99,270.78l60.49-32.84c13.2,46.02,24.89,87.16,26.76,94.82-7.68-4.33-54.92-38.37-87.24-61.98ZM1325.97,300l-.07-.31-.41.18-71.83-53.85-.1-.12,70.17-52.08,53.37,76.6-51.12,29.58ZM1193.32,288.73c-1.1-48.83-2.48-106.5-2.58-110.62v-.59s1.21.73,1.21.73l59.41,67.41-58.04,43.08ZM1196.32,288.38l56.05-41.6.35.39,70.41,52.8-126.8-11.6ZM1321.84,301.44l-127.17,54.63c-.01-6.22-.61-34.29-1.33-66.38l128.5,11.75ZM1345.25,418.63c-41.87,13.17-112.02,35.07-118.66,36.55l-31.46-96.67,150.12,60.11ZM1350.53,418.6c.33-.1.65-.2.98-.31l.66-.21-25.61-115.43,68.99,57.24,11.69,63.38-54.87-5.4-.12,1.56,55.29,5.44.06.34.12-.05,25.86,74.98-83.05-81.56ZM1409.03,424.6l62.09-27.3-35.85,103.37-26.24-76.08ZM1472.53,397.58l54.98,88.3-91.16,15.99,36.17-104.29ZM1594.81,382.43l.46.82.14-1.16,73.52,30.45-139.62,73.67,65.49-103.78ZM1595.95,380.63l.34-.54h-.01s39.82-64.1,39.82-64.1l33.44,95.11-73.58-30.47ZM1252.56,244.76l-58.31-66.16,126.76,14.42,1.1.13-69.54,51.61ZM1193.92,176.99l38.28-42.53c36.39,24.01,75.24,49.68,85.76,56.64l-124.04-14.11ZM1190.21,177.21l-114.4,47.93c12.38-20.14,33.9-55.02,52.33-84.61l62.07,36.67ZM1189.36,179.25c.2,8.38,1.5,62.51,2.54,108.89l-116.13-61.3,113.59-47.59ZM1191.94,289.9c.7,31.08,1.28,58.35,1.33,65.5l-119.55-127.69.23-.1,118,62.29ZM1191.35,355.51l-91.66-12.03c-10.87-47.6-23.11-101.19-25.94-113.58l117.61,125.61ZM1192.06,357.19l-.12.05.57.23-74.97,64.28c-1.5-6.59-9.03-39.6-17.49-76.63l92.01,12.07ZM1193.62,358.49l31.37,96.4-106.32-32.13,74.95-64.27ZM1227.67,456.4c5.62-1.37,28.02-7.96,119.85-36.85l.75.3.19-.59c.56-.18,1.13-.36,1.7-.54l-16.52,129.75-105.98-92.07ZM1351.24,421.39l82.71,81.22-98.91,46.05,16.2-127.27ZM1529.41,487.9l139.2-73.45-96.7,151.06-.11.06-42.39-77.67ZM1670.88,413.6c-.39,41.34-.77,89.69-.46,96.61l-95.82,53.79,96.28-150.4ZM1672.29,413.46l151.49,53.53-152.02,42.72c-.25-8.04.28-70.35.53-96.25ZM1824,468.55l-72.51,126.16-78.95-83.6,151.46-42.56ZM1826.09,467.81l1.04.37,15.24,105.72-89.4,21.14,73.12-127.22ZM1844.02,574.73l-.16-.44-14.82-102.84,81.94,89.94.32.35-67.27,12.99ZM1910.8,563.43l-44.83,70.63-21.41-57.84,66.24-12.79ZM1825.66,463.05l-60.8-122.38,78.23,33.05-17.43,89.33ZM1763.48,338.08l-68.87-107.62,1.44-.61,133.07,53.18.08.61-65.72,54.44ZM1831.41,289.92l-.71-5.58,1.91-1.58-2.22-.89-7.89-62.37,76.05,56.65-52.07,92.62-15.07-78.85ZM1899.8,275.19l-76.73-57.15,103.98-47.53,1.28.35-27.09,104.77-1.45-.44ZM1820.98,218.7l7.92,62.57-131.05-52.37,2.1-1.42,121.04-8.77ZM1696.5,227.98l-.46.19-.9-.36,1.79-.13-.44.3ZM1693.78,229.14l-.18-.28.43.17-.25.11ZM1692.42,229.72l-1.91.81,1.21-1.9.7,1.09ZM1693.26,231.03l69.47,108.58,62.48,125.76-.09.45-153.98-54.41-33.77-96.04,121.42,24.53-84.35,70.3.84,1.26,86.94-72.46-124.75-25.2,51.57-80.97,4.21-1.79ZM1636.44,312.71v-.02s-.72,1.15-.72,1.15l-.67,1.06h.02s-39.12,62.97-39.12,62.97l13.8-111.28,76.95-32.76-50.25,78.88ZM1594.41,378.78l-57.91-102.46,71.75-9.16-13.84,111.62ZM1608.14,265.6l-72.47,9.25-1.7-3.01,85.64-96.2-11.14,89.82-.32.14ZM1449.85,235.39l82.3-43.26.22.1c-.05,8.75-.2,36.22-.2,56.49,0,10.21.04,18.59.15,21.83l-82.46-35.17ZM1448.03,234.62l-2.04-.87-1.48.8-2.82-1.01c-10.93-38.08-22.23-77.23-28.22-97.94l116.95,55.71-82.39,43.31ZM1440.05,232.95l-112.61-40.4,84.5-57.16c7.79,26.93,18.28,63.29,28.11,97.56ZM1324.65,192.6l-.17-.25-47.43-107.01,133.61,49.08-86.01,58.18ZM1161.58,88.08c3.84,2.37,35.38,23.13,69.37,45.56l-38.7,43-63.3-37.39c16.46-26.42,30.29-48.31,32.63-51.17ZM1009.83,200l25.66-114.19,91.39,53.99c-3.13,5.02-6.53,10.5-10.26,16.51-21.46,34.57-43.02,69.66-43.23,70.01l-.35.57v-.02s-.21-.09-.21-.09l-.69-.73-.12.39-62.2-26.43ZM1010.02,201.75l61.55,26.15-32.94,105.57-28.61-131.73ZM1039.46,335.58l32.89-105.42c2.76,12.1,14.97,65.52,25.84,113.13l-58.73-7.71ZM1098.56,344.92c7.96,34.87,15.14,66.31,17.26,75.64l-75.37-83.26,58.11,7.62ZM1038.66,337.52l76.58,84.6-114.88-11.67,38.29-72.93ZM1000.13,412l115.16,11.7-93.35,80.91-21.81-92.6ZM1022.67,505.95l93.61-81.13-12.25,152.49-81.36-71.36ZM1000.15,610.65l21.81-103.32,81.13,71.16-102.94,32.17ZM1059.43,659.9l45.12-79.5,36.93,79.59-82.05-.08ZM1250.31,696.13l-99.04-34.68,207.22-5.01-108.18,39.69ZM1359.59,654.84l-212.61,5.14h-3.9s92.03-58.34,92.03-58.34l124.48,53.2ZM1233.28,600.83l-.04.02.17.07-90.98,57.67-36.56-78.77,127.41,21.01ZM1235.67,599.6c-3.14-46.15-8.72-130.15-8.92-142.02l106.05,92.12-.43.2.07.04-96.77,49.66ZM1335.99,549.92l98.23-45.73-18.36,77.42,1.36.4,18.42-77.7,69.34,71.87c-11.46,1.49-83.97,10.9-89.28,11.62l-79.72-37.88ZM1335.42,551.35l79.07,37.58-44.54,63.98-34.54-101.56ZM1371.3,653.53l44.35-63.72c2.45,1.98,11.73,7.39,46.29,25.45,18.93,9.89,38.08,19.71,44.61,23.05l-135.25,15.21ZM1510.86,638.03l61.49-70.74.19-.03,81.56,70.77h-143.24ZM1656.27,637.91l-81.28-70.52,170.07,30.65-88.78,39.88ZM1746.49,597.39l.1-.67-171.95-30.99,96.36-54.09,79.34,84.01-3.86,1.73ZM2060.49,587.72l-194.65,50.27-111.17-41.74,81.3-18.37,7.17-1.38,22.5,60.79,47-74.05.64.7-.38-1.11.03-.04,147.56,24.93ZM1913.66,561.32c13.23-15.07,47.92-54.81,51.73-61.78,5.83,3.49,59.59,52.64,96.46,86.82l-148.19-25.04ZM2062.93,585.33c-6.02-5.57-26.56-24.57-47.05-43.27-35.49-32.37-46-41.22-49.37-43.5l62.68-43.66,33.74,130.43ZM2126.98,492.89l-96.02-39.47,44.65-43.48,51.37,82.96ZM2130.22,354.68l-54.34,52.93-56.7-91.57,111.04,38.64ZM2016.06,313.3l-.36-.12,1.14,1.84.33.73.08-.06,57.56,92.95-44.66,43.5-14.91-138.3-69.76,97.57-95.53-37.16,165.91-61.37.19.43ZM2015,311.55l-167.22,61.86-1.84-.72,53.89-95.86,115.17,34.73ZM2014.44,309.75l-113.13-34.11,80.83-36.66.1-.04,32.21,70.81ZM1980.71,237.94l-77.32,35.07,26.31-101.78,1,.27,50.01,66.43ZM2039.55,197.26l-58.78,38.31-48.64-64.61,56.4-44.58,51.02,70.88ZM1918.03,63.11l.25,1.12-1.89.23,1.64-1.35ZM1919.63,63.85l67.88,61.43-56.56,44.67-.86-.24.67-2.61-3.82,1.75-100.2-27.52-.39-.1,106.22-14.36-.08-.78.68-.19-13.55-62.06ZM1918.61,65.77l13.02,59.65-106.78,14.44,89.3-73.56,4.46-.53ZM1911.38,66.64l-89.1,73.39-67-54.73,156.1-18.66ZM1754.69,86.76l66.41,54.25-.46.38.94.24v1.58s-122.05,82.72-122.05,82.72l-6.65.48,61.8-139.65ZM1689.63,226.65l-1.34.1,2.32.93-2.47,3.87-78.18,33.28,11.16-90.04,68.5,51.87ZM1619.65,173.36l-85.97,96.58c-.24-9.51-.02-58.07.1-77.94l49.38-70.64,36.5,52ZM1582.19,120.18l-48.67,69.63-.04-.1-1.35.71-117.76-56.1,134.92-46.82,32.91,32.68ZM1399.7,49.25l147.04,37.48-134.38,46.64-1.18-.56.05.17-133.06-48.88,121.53-34.84Z"/>
            <path class="cls-4" d="M1190.72,177.51v.59c.11,4.13,1.5,61.8,2.6,110.62l58.04-43.08-59.41-67.41-1.23-.73Z"/>
            <polygon class="cls-4" points="1595.42 382.09 1595.28 383.25 1594.81 382.43 1529.33 486.21 1668.95 412.54 1595.42 382.09"/>
            <path class="cls-4" d="M1075.82,225.15l114.4-47.93-62.07-36.67c-18.43,29.58-39.95,64.47-52.33,84.61Z"/>
            <polygon class="cls-4" points="1596.27 380.1 1596.28 380.1 1595.95 380.63 1669.53 411.1 1636.09 316 1596.27 380.1"/>
            <path class="cls-4" d="M1191.9,288.14c-1.05-46.38-2.34-100.51-2.54-108.89l-113.59,47.59,116.13,61.3Z"/>
            <polygon class="cls-4" points="1822.5 219.49 1830.39 281.87 1832.61 282.76 1830.7 284.34 1831.41 289.92 1846.48 368.76 1898.55 276.14 1822.5 219.49"/>
            <polygon class="cls-4" points="1471.12 397.3 1409.03 424.6 1435.26 500.67 1471.12 397.3"/>
            <path class="cls-4" d="M1321.84,301.44l-128.5-11.75c.72,32.09,1.32,60.16,1.33,66.38l127.17-54.63Z"/>
            <polygon class="cls-4" points="1527.51 485.88 1472.53 397.58 1436.36 501.87 1527.51 485.88"/>
            <polygon class="cls-4" points="1252.72 247.18 1252.37 246.79 1196.32 288.38 1323.12 299.98 1252.72 247.18"/>
            <path class="cls-4" d="M1345.25,418.63l-150.12-60.11,31.46,96.67c6.64-1.49,76.79-23.39,118.66-36.55Z"/>
            <path class="cls-4" d="M1407.72,425.17l-.12.05-.06-.34-55.29-5.44.12-1.56,54.87,5.4-11.69-63.38-68.99-57.24,25.61,115.43-.66.21c-.33.1-.65.21-.98.31l83.05,81.56-25.86-74.98Z"/>
            <path class="cls-4" d="M1191.35,355.51l-117.61-125.61c2.83,12.39,15.07,65.98,25.94,113.58l91.66,12.03Z"/>
            <path class="cls-4" d="M1193.92,176.99l124.04,14.11c-10.52-6.96-49.37-32.63-85.76-56.64l-38.28,42.53Z"/>
            <polygon class="cls-4" points="1829.12 283.02 1696.05 229.84 1694.61 230.45 1763.48 338.08 1829.19 283.63 1829.12 283.02"/>
            <polygon class="cls-4" points="1825.66 463.05 1843.09 373.72 1764.86 340.67 1825.66 463.05"/>
            <path class="cls-4" d="M1192.51,357.47l-.57-.23.12-.05-92.01-12.07c8.46,37.04,15.99,70.05,17.49,76.63l74.97-64.28Z"/>
            <polygon class="cls-4" points="1225 454.89 1193.62 358.49 1118.68 422.75 1225 454.89"/>
            <polygon class="cls-4" points="1668.61 414.45 1529.41 487.9 1571.8 565.57 1571.91 565.51 1668.61 414.45"/>
            <path class="cls-4" d="M1670.88,413.6l-96.28,150.4,95.82-53.79c-.32-6.92.06-55.28.46-96.61Z"/>
            <path class="cls-4" d="M1671.76,509.71l152.02-42.72-151.49-53.53c-.25,25.9-.77,88.21-.53,96.25Z"/>
            <path class="cls-4" d="M1193.27,355.39c-.05-7.14-.63-34.42-1.33-65.5l-118-62.29-.23.1,119.55,127.69Z"/>
            <path class="cls-4" d="M1912.19,560.76c20.72-23.58,50.78-58.53,52.12-62.1l-18.21-85.58-.12.17-98.16-38.18,64.39,185.69Z"/>
            <polygon class="cls-4" points="1253.56 245.9 1253.67 246.02 1325.49 299.87 1325.9 299.69 1325.97 300 1377.09 270.42 1323.73 193.82 1253.56 245.9"/>
            <path class="cls-4" d="M1273.31,86.59l.99,1.11-41.07,45.62c38.55,25.43,79.9,52.76,88.19,58.25l1.48.98.07-.05-47.82-107.9-66.32-35.24-46.05,37.7c6.03,3.83,36.46,23.85,69.2,45.44l41.33-45.91Z"/>
            <polygon class="cls-4" points="1821.56 145.05 1702.54 225.71 1821.43 217.09 1924.74 169.87 1826.43 142.86 1825.23 142.56 1822.97 144.09 1822.52 214.21 1821.12 214.2 1821.56 145.05"/>
            <polygon class="cls-4" points="1830.02 290.19 1829.42 285.4 1764.77 338.96 1844.72 372.73 1826.69 465.13 1828.4 468.56 1909.63 557.72 1845.4 372.47 1845.78 372.62 1830.02 290.19"/>
            <polygon class="cls-4" points="1823.27 142.05 1822.98 141.98 1822.98 142.25 1823.27 142.05"/>
            <path class="cls-4" d="M1469.95,335.07l3.04,59.59c3.19-1.23,15-3.53,61.2-8.44,24.18-2.57,48.46-4.86,57.2-5.67l-121.44-45.48Z"/>
            <polygon class="cls-4" points="1192.31 357.08 1192.67 356.93 1192.36 356.6 1192.31 357.08"/>
            <path class="cls-4" d="M1593.41,381.93c-45.98,4.2-113.41,11.22-120.07,14.2l55.19,88.63,64.88-102.83Z"/>
            <path class="cls-4" d="M1467.49,334.04c-3.42-1.92-13.39-8.6-44.18-30.73-21.92-15.75-43.91-31.81-44.13-31.97l-.28-.2-.42.24-51.36,29.72,1.25.94-.24-.02,68.18,56.56,70.89-24.28c.09-.09.18-.17.28-.26Z"/>
            <path class="cls-4" d="M1380.99,270.78c32.33,23.61,79.57,57.65,87.24,61.98-1.87-7.67-13.56-48.8-26.76-94.82l-60.49,32.84Z"/>
            <path class="cls-4" d="M1468,335.6l-.24.15-70.76,24.24,11.64,63.1,62.98-27.69-3.07-60.3c-.34.32-.53.49-.54.51Z"/>
            <path class="cls-4" d="M1325.21,193.4l53.55,76.85,62.29-33.82c-.16-.55-.32-1.1-.47-1.65l-115.36-41.39Z"/>
            <path class="cls-4" d="M1442.22,235.38c.03.12.07.24.1.36l.36-.19-.46-.17Z"/>
            <path class="cls-4" d="M1347.58,417.9c.98-.31,1.95-.61,2.89-.91l-25.55-115.19-128.95,55.39,151.61,60.71Z"/>
            <path class="cls-4" d="M1500.94,304.55c-12.76,12.13-25.67,24.24-30.71,28.97l122.97,46.05-58.25-103.05-.27.03-.06-.62-1.62-2.86c-2.01,2.49-8.94,9.51-32.06,31.48Z"/>
            <path class="cls-4" d="M1444.62,236.24l-1.86,1.01c12.59,43.91,24.42,85.56,26.72,94.93,24.2-22.66,58.06-54.77,62.49-60.08l-83.88-35.78-1.31.69-.26-.09-1.89-.68Z"/>
            <polygon class="cls-4" points="1321 193.03 1194.25 178.6 1252.56 244.76 1322.1 193.15 1321 193.03"/>
            <polygon class="cls-4" points="1945.49 411.41 2015.24 313.84 2030.15 452.15 2074.81 408.64 2017.25 315.69 2017.17 315.75 2016.84 315.02 2015.7 313.18 2016.06 313.3 2015.86 312.88 1849.95 374.25 1945.49 411.41"/>
            <polygon class="cls-4" points="1927.06 170.5 1823.07 218.03 1899.8 275.19 1901.25 275.63 1928.34 170.86 1927.06 170.5"/>
            <polygon class="cls-4" points="1845.94 372.68 1847.78 373.4 2015 311.55 1899.82 276.82 1845.94 372.68"/>
            <polygon class="cls-4" points="1932.5 126.1 1932.58 126.88 1826.37 141.24 1826.75 141.34 1926.95 168.86 1930.77 167.11 1930.09 169.72 1930.95 169.96 1987.51 125.29 1919.63 63.85 1933.18 125.91 1932.5 126.1"/>
            <path class="cls-4" d="M1533.67,269.94l85.97-96.58-36.5-52-49.38,70.64c-.12,19.88-.34,68.43-.1,77.94Z"/>
            <polygon class="cls-4" points="1688.14 231.54 1690.61 227.67 1688.29 226.74 1689.63 226.65 1621.12 174.78 1609.96 264.82 1688.14 231.54"/>
            <polygon class="cls-4" points="1699.54 225.93 1821.57 143.2 1821.58 141.62 1820.64 141.38 1821.1 141 1754.69 86.76 1692.89 226.41 1699.54 225.93"/>
            <polygon class="cls-4" points="1532.12 190.42 1533.47 189.71 1533.52 189.81 1582.19 120.18 1549.28 87.5 1414.37 134.32 1532.12 190.42"/>
            <polygon class="cls-4" points="1411.24 132.98 1411.19 132.81 1412.37 133.37 1546.75 86.73 1399.7 49.25 1278.18 84.1 1411.24 132.98"/>
            <polygon class="cls-4" points="1980.76 235.57 2039.55 197.26 1988.52 126.38 1932.12 170.95 1980.76 235.57"/>
            <polygon class="cls-4" points="1901.31 275.64 2014.44 309.75 1982.23 238.94 1982.14 238.99 1901.31 275.64"/>
            <polygon class="cls-4" points="1929.7 171.23 1903.39 273.01 1980.71 237.94 1930.71 171.51 1929.7 171.23"/>
            <polygon class="cls-4" points="1911.38 66.64 1755.28 85.3 1822.28 140.03 1911.38 66.64"/>
            <polygon class="cls-4" points="1918.03 63.11 1916.39 64.46 1918.27 64.23 1918.03 63.11"/>
            <polygon class="cls-4" points="1931.63 125.43 1918.61 65.77 1914.15 66.31 1824.85 139.86 1931.63 125.43"/>
            <path class="cls-4" d="M1532.37,192.24l-.22-.1-82.3,43.26,82.46,35.17c-.11-3.24-.15-11.62-.15-21.83,0-20.27.15-47.74.2-56.49Z"/>
            <polygon class="cls-4" points="1533.96 271.84 1535.67 274.85 1608.14 265.6 1608.46 265.46 1619.6 175.64 1533.96 271.84"/>
            <polygon class="cls-4" points="1594.41 378.78 1608.25 267.16 1536.5 276.32 1594.41 378.78"/>
            <path class="cls-4" d="M1192.25,176.64l38.7-43c-34-22.43-65.53-43.19-69.37-45.56-2.33,2.85-16.16,24.75-32.63,51.17l63.3,37.39Z"/>
            <path class="cls-4" d="M1327.44,192.55l112.61,40.4c-9.83-34.27-20.32-70.63-28.11-97.56l-84.5,57.16Z"/>
            <polygon class="cls-4" points="1277.05 85.33 1324.48 192.35 1324.65 192.6 1410.66 134.42 1277.05 85.33"/>
            <path class="cls-4" d="M1413.47,135.6c5.99,20.72,17.3,59.86,28.22,97.94l2.82,1.01,1.48-.8,2.04.87,82.39-43.31-116.95-55.71Z"/>
            <polygon class="cls-4" points="1696.05 228.18 1696.5 227.98 1696.94 227.69 1695.15 227.82 1696.05 228.18"/>
            <polygon class="cls-4" points="1693.78 229.14 1694.03 229.04 1693.59 228.86 1693.78 229.14"/>
            <polygon class="cls-4" points="1828.9 281.27 1820.98 218.7 1699.95 227.47 1697.84 228.89 1828.9 281.27"/>
            <polygon class="cls-4" points="1692.42 229.72 1691.72 228.63 1690.51 230.54 1692.42 229.72"/>
            <polygon class="cls-4" points="1762.23 338.99 1675.29 411.45 1674.45 410.19 1758.8 339.89 1637.38 315.37 1671.14 411.41 1825.12 465.82 1825.21 465.37 1762.73 339.61 1693.26 231.03 1689.05 232.82 1637.48 313.79 1762.23 338.99"/>
            <polygon class="cls-4" points="1595.94 377.87 1635.06 314.9 1635.05 314.9 1635.72 313.84 1636.44 312.69 1636.44 312.71 1686.69 233.83 1609.74 266.59 1595.94 377.87"/>
            <polygon class="cls-4" points="1000.13 412 1021.94 504.6 1115.29 423.7 1000.13 412"/>
            <polygon class="cls-4" points="1038.66 337.52 1000.36 410.45 1115.24 422.12 1038.66 337.52"/>
            <path class="cls-4" d="M1072.35,230.16l-32.89,105.42,58.73,7.71c-10.87-47.61-23.07-101.03-25.84-113.13Z"/>
            <path class="cls-4" d="M1072.15,226.03l.69.73.21.09v.02s.35-.57.35-.57c.22-.35,21.78-35.44,43.23-70.01,3.73-6.01,7.13-11.48,10.26-16.51l-91.39-53.99-25.66,114.19,62.2,26.43.12-.39Z"/>
            <polygon class="cls-4" points="1010.02 201.75 1038.63 333.48 1071.57 227.91 1010.02 201.75"/>
            <path class="cls-4" d="M1098.56,344.92l-58.11-7.62,75.37,83.26c-2.12-9.33-9.3-40.77-17.26-75.64Z"/>
            <path class="cls-3" d="M1209.06,47.74l-.38-.2-47.6,38.97.05.08c-1.43,1.26-6.72,9.03-33.43,51.92l-93.12-55.02v.04s-33.77-18.01-33.77-18.01l-.6,1.42,34.02,18.15-25.7,114.36-.49-.21.2.92-8.87-3.92-.52,1.46,9.79,4.33,28.67,132.01-36.34-35.69-.93,1.18,37.57,36.9-38.79,73.88-.55-.06,22.47,95.41-.34.3.36.31-22.5,106.62,104.8-32.75-45.07,79.4-55.18-47.39-.86,1.24,53.87,46.27-58.52-5.94-.13,1.56,60.73,6.16.45.39.2-.36,88.33.09,103.45,36.22,112.99-41.46,3.48-.08-129.93-55.52,96.93-49.74,35.74,105.1.58-.84,138.97-15.64.28.15.14-.16h143.25l-143.45,69.05-142.19-51.85-.44,1.49,142.7,52.04,146.96-70.73,109.93,27.59,92.71-25.9,261.01,21.17.1-1.56-261.12-21.18h-.11s-92.6,25.86-92.6,25.86l-107.73-26.97,93.13-41.83,114.13,42.86,198.26-51.2,61.03,62.47.95-1.16-60.6-62.03,60.48-39.2-.7-1.36-60.53,39.24-34-131.41,99.99,41.11-53.98-87.18,56.36-54.88-113.99-39.67,89.47-67.16c7.59,11.95,18.68,29.71,19.17,31.33l1.33-.5c-.71-2.39-17.8-29.3-19.75-32.37l-.4-.62-91.17,68.43-.49-1.08,2.67-.99-3.61-1.09-33.7-74.09,57.92-37.75c.07.03.17.06.29.06l64.04,45.11.75-1.33-62.92-44.32c3.66-1.58,13.53-7.37,41.85-26.42,20.64-13.88,41.21-28.19,41.42-28.33l-.74-1.33c-30.77,21.42-77.17,52.82-83.71,54.94,2.38-9.9,28.44-96.75,31.76-107.79l49.04,50.17.95-1.16-50.64-51.8-.34,1.14c-1.22,4.06-28.44,94.64-31.95,108.35l-50.47-70.11,79.84-34.91-.51-1.46-80.36,35.14-67.86-61.44,148.38,24.68.23.04,56.37-34.64-.68-1.38-55.95,34.38-150.23-24.98-.14-.63-.62.51-2.26-.38,1.29,1.17-3.69,3.04-158.56,18.95.14,1.48-.36-.29-.67-.55-62.72,141.74-70.38-53.29-37.92-54.03-.09.13-31.77-31.55,196.86-1.02-125.11,84.29.72,1.34,129.47-87.22-203.51,1.06-.1-.09-.2.07-149.57-38.12-.17-.04-123.94,35.54-66.69-35.44ZM1208.83,49.36l66.32,35.24,47.82,107.9-.07.05-1.48-.98c-8.3-5.49-49.65-32.82-88.19-58.25l41.07-45.62-.99-1.11-41.33,45.91c-32.74-21.6-63.16-41.62-69.2-45.44l46.05-37.7ZM1822.97,144.09l2.26-1.53,1.19.3,98.31,27.01-103.31,47.22-118.88,8.62,119.02-80.66-.44,69.15h1.4s.45-70.11.45-70.11ZM1823.27,142.05l-.29.19v-.26s.29.07.29.07ZM1909.63,557.72l-81.23-89.17-1.7-3.43,18.03-92.39-79.95-33.77,64.65-53.56.61,4.79,15.76,82.43-.39-.15,64.23,185.25ZM1947.06,412.19l-.25-.12,67.44-94.32,14.51,134.68-81.71-40.23ZM2028.11,453.82l-62.63,43.61-17.7-83.16,80.32,39.55ZM1945.96,413.26l.12-.17,18.21,85.58c-1.33,3.57-31.4,38.52-52.12,62.1l-64.39-185.69,98.16,38.18ZM1506.81,575.94l-70.01-72.56,90.73-15.91,42.86,78.54-63.58,9.93ZM1570.09,567.64l-61.04,70.22c-33.96-17.33-83.62-43.17-91.83-48.68,12.22-1.62,88.63-11.53,89.45-11.64l1.51-.2-.03-.03,61.95-9.68ZM1173.99,509.77l59.65,89.53-127.45-21.01,67.8-68.52ZM1105.47,576.9l12.18-151.68,55.49,83.29-67.68,68.39ZM1175.04,508.71l50.39-50.92c.01,4.98.86,20.6,4.12,70.88,1.9,29.28,3.9,58.82,4.57,68.71l-59.08-88.67ZM1174.2,507.45l-55.3-83,105.8,31.97-50.5,51.03ZM1441.05,236.43l-62.29,33.82-53.55-76.85,115.36,41.39c.16.55.32,1.1.47,1.65ZM1442.22,235.38l.46.17-.36.19c-.04-.12-.07-.24-.1-.36ZM1448.09,236.32l83.88,35.78c-4.43,5.31-38.29,37.42-62.49,60.08-2.3-9.36-14.13-51.02-26.72-94.93l1.86-1.01,1.89.68.26.09,1.31-.69ZM1534.62,275.93l.06.62.27-.03,58.25,103.05-122.97-46.05c5.04-4.73,17.95-16.84,30.71-28.97,23.12-21.97,30.05-28.99,32.06-31.48l1.62,2.86ZM1324.92,301.79l25.55,115.19c-.94.3-1.91.6-2.89.91l-151.61-60.71,128.95-55.39ZM1192.31,357.08l.05-.49.31.33-.36.15ZM1593.41,381.93l-64.88,102.83-55.19-88.63c6.66-2.98,74.09-10,120.07-14.2ZM1408.64,423.08l-11.64-63.1,70.76-24.24.24-.15s.2-.19.54-.51l3.07,60.3-62.98,27.69ZM1534.19,386.21c-46.2,4.92-58.01,7.21-61.2,8.44l-3.04-59.59,121.44,45.48c-8.73.81-33.01,3.1-57.2,5.67ZM1396.32,358.58l-68.18-56.56.24.02-1.25-.94,51.36-29.72.42-.24.28.2c.22.16,22.2,16.22,44.13,31.97,30.79,22.13,40.75,28.81,44.18,30.73-.09.09-.18.17-.28.26l-70.89,24.28ZM1380.99,270.78l60.49-32.84c13.2,46.02,24.89,87.16,26.76,94.82-7.68-4.33-54.92-38.37-87.24-61.98ZM1325.97,300l-.07-.31-.41.18-71.83-53.85-.1-.12,70.17-52.08,53.37,76.6-51.12,29.58ZM1193.32,288.73c-1.1-48.83-2.48-106.5-2.58-110.62v-.59s1.21.73,1.21.73l59.41,67.41-58.04,43.08ZM1196.32,288.38l56.05-41.6.35.39,70.41,52.8-126.8-11.6ZM1321.84,301.44l-127.17,54.63c-.01-6.22-.61-34.29-1.33-66.38l128.5,11.75ZM1345.25,418.63c-41.87,13.17-112.02,35.07-118.66,36.55l-31.46-96.67,150.12,60.11ZM1350.53,418.6c.33-.1.65-.2.98-.31l.66-.21-25.61-115.43,68.99,57.24,11.69,63.38-54.87-5.4-.12,1.56,55.29,5.44.06.34.12-.05,25.86,74.98-83.05-81.56ZM1409.03,424.6l62.09-27.3-35.85,103.37-26.24-76.08ZM1472.53,397.58l54.98,88.3-91.16,15.99,36.17-104.29ZM1594.81,382.43l.46.82.14-1.16,73.52,30.45-139.62,73.67,65.49-103.78ZM1595.95,380.63l.34-.54h-.01s39.82-64.1,39.82-64.1l33.44,95.11-73.58-30.47ZM1252.56,244.76l-58.31-66.16,126.76,14.42,1.1.13-69.54,51.61ZM1193.92,176.99l38.28-42.53c36.39,24.01,75.24,49.68,85.76,56.64l-124.04-14.11ZM1190.21,177.21l-114.4,47.93c12.38-20.14,33.9-55.02,52.33-84.61l62.07,36.67ZM1189.36,179.25c.2,8.38,1.5,62.51,2.54,108.89l-116.13-61.3,113.59-47.59ZM1191.94,289.9c.7,31.08,1.28,58.35,1.33,65.5l-119.55-127.69.23-.1,118,62.29ZM1191.35,355.51l-91.66-12.03c-10.87-47.6-23.11-101.19-25.94-113.58l117.61,125.61ZM1192.06,357.19l-.12.05.57.23-74.97,64.28c-1.5-6.59-9.03-39.6-17.49-76.63l92.01,12.07ZM1193.62,358.49l31.37,96.4-106.32-32.13,74.95-64.27ZM1227.67,456.4c5.62-1.37,28.02-7.96,119.85-36.85l.75.3.19-.59c.56-.18,1.13-.36,1.7-.54l-16.52,129.75-105.98-92.07ZM1351.24,421.39l82.71,81.22-98.91,46.05,16.2-127.27ZM1529.41,487.9l139.2-73.45-96.7,151.06-.11.06-42.39-77.67ZM1670.88,413.6c-.39,41.34-.77,89.69-.46,96.61l-95.82,53.79,96.28-150.4ZM1672.29,413.46l151.49,53.53-152.02,42.72c-.25-8.04.28-70.35.53-96.25ZM1824,468.55l-72.51,126.16-78.95-83.6,151.46-42.56ZM1826.09,467.81l1.04.37,15.24,105.72-89.4,21.14,73.12-127.22ZM1844.02,574.73l-.16-.44-14.82-102.84,81.94,89.94.32.35-67.27,12.99ZM1910.8,563.43l-44.83,70.63-21.41-57.84,66.24-12.79ZM1825.66,463.05l-60.8-122.38,78.23,33.05-17.43,89.33ZM1763.48,338.08l-68.87-107.62,1.44-.61,133.07,53.18.08.61-65.72,54.44ZM1831.41,289.92l-.71-5.58,1.91-1.58-2.22-.89-7.89-62.37,76.05,56.65-52.07,92.62-15.07-78.85ZM1899.8,275.19l-76.73-57.15,103.98-47.53,1.28.35-27.09,104.77-1.45-.44ZM1820.98,218.7l7.92,62.57-131.05-52.37,2.1-1.42,121.04-8.77ZM1696.5,227.98l-.46.19-.9-.36,1.79-.13-.44.3ZM1693.78,229.14l-.18-.28.43.17-.25.11ZM1692.42,229.72l-1.91.81,1.21-1.9.7,1.09ZM1693.26,231.03l69.47,108.58,62.48,125.76-.09.45-153.98-54.41-33.77-96.04,121.42,24.53-84.35,70.3.84,1.26,86.94-72.46-124.75-25.2,51.57-80.97,4.21-1.79ZM1636.44,312.71v-.02s-.72,1.15-.72,1.15l-.67,1.06h.02s-39.12,62.97-39.12,62.97l13.8-111.28,76.95-32.76-50.25,78.88ZM1594.41,378.78l-57.91-102.46,71.75-9.16-13.84,111.62ZM1608.14,265.6l-72.47,9.25-1.7-3.01,85.64-96.2-11.14,89.82-.32.14ZM1449.85,235.39l82.3-43.26.22.1c-.05,8.75-.2,36.22-.2,56.49,0,10.21.04,18.59.15,21.83l-82.46-35.17ZM1448.03,234.62l-2.04-.87-1.48.8-2.82-1.01c-10.93-38.08-22.23-77.23-28.22-97.94l116.95,55.71-82.39,43.31ZM1440.05,232.95l-112.61-40.4,84.5-57.16c7.79,26.93,18.28,63.29,28.11,97.56ZM1324.65,192.6l-.17-.25-47.43-107.01,133.61,49.08-86.01,58.18ZM1161.58,88.08c3.84,2.37,35.38,23.13,69.37,45.56l-38.7,43-63.3-37.39c16.46-26.42,30.29-48.31,32.63-51.17ZM1009.83,200l25.66-114.19,91.39,53.99c-3.13,5.02-6.53,10.5-10.26,16.51-21.46,34.57-43.02,69.66-43.23,70.01l-.35.57v-.02s-.21-.09-.21-.09l-.69-.73-.12.39-62.2-26.43ZM1010.02,201.75l61.55,26.15-32.94,105.57-28.61-131.73ZM1039.46,335.58l32.89-105.42c2.76,12.1,14.97,65.52,25.84,113.13l-58.73-7.71ZM1098.56,344.92c7.96,34.87,15.14,66.31,17.26,75.64l-75.37-83.26,58.11,7.62ZM1038.66,337.52l76.58,84.6-114.88-11.67,38.29-72.93ZM1000.13,412l115.16,11.7-93.35,80.91-21.81-92.6ZM1022.67,505.95l93.61-81.13-12.25,152.49-81.36-71.36ZM1000.15,610.65l21.81-103.32,81.13,71.16-102.94,32.17ZM1059.43,659.9l45.12-79.5,36.93,79.59-82.05-.08ZM1250.31,696.13l-99.04-34.68,207.22-5.01-108.18,39.69ZM1359.59,654.84l-212.61,5.14h-3.9s92.03-58.34,92.03-58.34l124.48,53.2ZM1233.28,600.83l-.04.02.17.07-90.98,57.67-36.56-78.77,127.41,21.01ZM1235.67,599.6c-3.14-46.15-8.72-130.15-8.92-142.02l106.05,92.12-.43.2.07.04-96.77,49.66ZM1335.99,549.92l98.23-45.73-18.36,77.42,1.36.4,18.42-77.7,69.34,71.87c-11.46,1.49-83.97,10.9-89.28,11.62l-79.72-37.88ZM1335.42,551.35l79.07,37.58-44.54,63.98-34.54-101.56ZM1371.3,653.53l44.35-63.72c2.45,1.98,11.73,7.39,46.29,25.45,18.93,9.89,38.08,19.71,44.61,23.05l-135.25,15.21ZM1510.86,638.03l61.49-70.74.19-.03,81.56,70.77h-143.24ZM1656.27,637.91l-81.28-70.52,170.07,30.65-88.78,39.88ZM1746.49,597.39l.1-.67-171.95-30.99,96.36-54.09,79.34,84.01-3.86,1.73ZM2060.49,587.72l-194.65,50.27-111.17-41.74,81.3-18.37,7.17-1.38,22.5,60.79,47-74.05.64.7-.38-1.11.03-.04,147.56,24.93ZM1913.66,561.32c13.23-15.07,47.92-54.81,51.73-61.78,5.83,3.49,59.59,52.64,96.46,86.82l-148.19-25.04ZM2062.93,585.33c-6.02-5.57-26.56-24.57-47.05-43.27-35.49-32.37-46-41.22-49.37-43.5l62.68-43.66,33.74,130.43ZM2126.98,492.89l-96.02-39.47,44.65-43.48,51.37,82.96ZM2130.22,354.68l-54.34,52.93-56.7-91.57,111.04,38.64ZM2016.06,313.3l-.36-.12,1.14,1.84.33.73.08-.06,57.56,92.95-44.66,43.5-14.91-138.3-69.76,97.57-95.53-37.16,165.91-61.37.19.43ZM2015,311.55l-167.22,61.86-1.84-.72,53.89-95.86,115.17,34.73ZM2014.44,309.75l-113.13-34.11,80.83-36.66.1-.04,32.21,70.81ZM1980.71,237.94l-77.32,35.07,26.31-101.78,1,.27,50.01,66.43ZM2039.55,197.26l-58.78,38.31-48.64-64.61,56.4-44.58,51.02,70.88ZM1918.03,63.11l.25,1.12-1.89.23,1.64-1.35ZM1919.63,63.85l67.88,61.43-56.56,44.67-.86-.24.67-2.61-3.82,1.75-100.2-27.52-.39-.1,106.22-14.36-.08-.78.68-.19-13.55-62.06ZM1918.61,65.77l13.02,59.65-106.78,14.44,89.3-73.56,4.46-.53ZM1911.38,66.64l-89.1,73.39-67-54.73,156.1-18.66ZM1754.69,86.76l66.41,54.25-.46.38.94.24v1.58s-122.05,82.72-122.05,82.72l-6.65.48,61.8-139.65ZM1689.63,226.65l-1.34.1,2.32.93-2.47,3.87-78.18,33.28,11.16-90.04,68.5,51.87ZM1619.65,173.36l-85.97,96.58c-.24-9.51-.02-58.07.1-77.94l49.38-70.64,36.5,52ZM1582.19,120.18l-48.67,69.63-.04-.1-1.35.71-117.76-56.1,134.92-46.82,32.91,32.68ZM1399.7,49.25l147.04,37.48-134.38,46.64-1.18-.56.05.17-133.06-48.88,121.53-34.84Z"/>
          </g>
          <g>
            <path class="cls-7" d="M1116.45,411.63c4.76,0,8.62,4.31,8.62,9.64s-3.86,9.63-8.62,9.63-8.62-4.31-8.62-9.63,3.86-9.64,8.62-9.64Z"/>
            <path class="cls-7" d="M1351.32,407.9c4.76,0,8.62,4.31,8.62,9.63s-3.86,9.64-8.62,9.64-8.62-4.31-8.62-9.64,3.86-9.63,8.62-9.63Z"/>
            <path class="cls-7" d="M1594.38,368.76c4.76,0,8.62,4.31,8.62,9.64s-3.86,9.63-8.62,9.63-8.62-4.31-8.62-9.63,3.86-9.64,8.62-9.64Z"/>
            <path class="cls-7" d="M1670.29,400.2c4.76,0,8.62,4.31,8.62,9.63s-3.86,9.64-8.62,9.64-8.62-4.31-8.62-9.64,3.86-9.63,8.62-9.63Z"/>
            <path class="cls-7" d="M1846.6,364.14c4.76,0,8.62,4.31,8.62,9.63s-3.86,9.64-8.62,9.64-8.62-4.31-8.62-9.64,3.86-9.63,8.62-9.63Z"/>
            <path class="cls-7" d="M1763.32,329.55c4.76,0,8.62,4.31,8.62,9.63s-3.86,9.64-8.62,9.64-8.62-4.31-8.62-9.64,3.86-9.63,8.62-9.63Z"/>
            <path class="cls-7" d="M1827.44,274.64c4.76,0,8.62,4.31,8.62,9.63s-3.86,9.64-8.62,9.64-8.62-4.31-8.62-9.64,3.86-9.63,8.62-9.63Z"/>
            <ellipse class="cls-7" cx="1902.31" cy="274.34" rx="8.62" ry="9.63"/>
            <path class="cls-7" d="M1946.77,403.28c4.76,0,8.62,4.31,8.62,9.64s-3.86,9.63-8.62,9.63-8.62-4.31-8.62-9.63,3.86-9.64,8.62-9.64Z"/>
            <ellipse class="cls-7" cx="1928.99" cy="173.94" rx="8.62" ry="9.63"/>
            <path class="cls-7" d="M1935.54,117.77c4.76,0,8.62,4.31,8.62,9.63s-3.86,9.64-8.62,9.64-8.62-4.31-8.62-9.64,3.86-9.63,8.62-9.63Z"/>
            <path class="cls-7" d="M1918.69,51.88c4.76,0,8.62,4.31,8.62,9.63s-3.86,9.64-8.62,9.64-8.62-4.31-8.62-9.64,3.86-9.63,8.62-9.63Z"/>
            <path class="cls-7" d="M1824.16,208.76c4.76,0,8.62,4.31,8.62,9.63s-3.86,9.64-8.62,9.64-8.62-4.31-8.62-9.64,3.86-9.63,8.62-9.63Z"/>
            <path class="cls-7" d="M1754.43,75.94c4.76,0,8.62,4.31,8.62,9.63s-3.86,9.63-8.62,9.63-8.62-4.31-8.62-9.63,3.86-9.63,8.62-9.63Z"/>
            <ellipse class="cls-7" cx="1691.72" cy="227.28" rx="8.62" ry="9.63"/>
            <path class="cls-7" d="M1640.24,306.54c4.76,0,8.62,4.31,8.62,9.63s-3.86,9.63-8.62,9.63-8.62-4.31-8.62-9.63,3.86-9.63,8.62-9.63Z"/>
            <ellipse class="cls-7" cx="1624.33" cy="175.51" rx="8.62" ry="9.63"/>
            <path class="cls-7" d="M1609.35,255.82c4.76,0,8.62,4.31,8.62,9.63s-3.86,9.64-8.62,9.64-8.62-4.31-8.62-9.64,3.86-9.63,8.62-9.63Z"/>
            <path class="cls-7" d="M1533.07,262.09c4.76,0,8.62,4.31,8.62,9.63s-3.86,9.64-8.62,9.64-8.62-4.31-8.62-9.64,3.86-9.63,8.62-9.63Z"/>
            <path class="cls-7" d="M1535.41,183.66c4.76,0,8.62,4.31,8.62,9.63s-3.86,9.64-8.62,9.64-8.62-4.31-8.62-9.64,3.86-9.63,8.62-9.63Z"/>
            <path class="cls-7" d="M1584.55,108.88c4.76,0,8.62,4.31,8.62,9.63s-3.86,9.63-8.62,9.63-8.62-4.31-8.62-9.63,3.86-9.63,8.62-9.63Z"/>
            <ellipse class="cls-7" cx="1549.45" cy="82.44" rx="8.62" ry="9.63"/>
            <path class="cls-7" d="M1412.33,120.39c4.76,0,8.62,4.31,8.62,9.63s-3.86,9.63-8.62,9.63-8.62-4.31-8.62-9.63,3.86-9.63,8.62-9.63Z"/>
            <ellipse class="cls-7" cx="1444.62" cy="233.03" rx="8.62" ry="9.63"/>
            <ellipse class="cls-7" cx="1469.19" cy="333.95" rx="8.62" ry="9.63"/>
            <path class="cls-7" d="M1474.57,385.5c4.76,0,8.62,4.31,8.62,9.63s-3.86,9.64-8.62,9.64-8.62-4.31-8.62-9.64,3.86-9.63,8.62-9.63Z"/>
            <path class="cls-7" d="M1409.06,410.6c4.76,0,8.62,4.31,8.62,9.63s-3.86,9.64-8.62,9.64-8.62-4.31-8.62-9.64,3.86-9.63,8.62-9.63Z"/>
            <path class="cls-7" d="M1397.82,345.76c4.76,0,8.62,4.31,8.62,9.63s-3.86,9.63-8.62,9.63-8.62-4.31-8.62-9.63,3.86-9.63,8.62-9.63Z"/>
            <path class="cls-7" d="M1325.41,291.11c4.76,0,8.62,4.31,8.62,9.64s-3.86,9.63-8.62,9.63-8.62-4.31-8.62-9.63,3.86-9.64,8.62-9.64Z"/>
            <path class="cls-7" d="M1377.23,256.86c4.76,0,8.62,4.31,8.62,9.63s-3.86,9.63-8.62,9.63-8.62-4.31-8.62-9.63,3.86-9.63,8.62-9.63Z"/>
            <path class="cls-7" d="M1325.75,185.75c4.76,0,8.62,4.31,8.62,9.63s-3.86,9.63-8.62,9.63-8.62-4.31-8.62-9.63,3.86-9.63,8.62-9.63Z"/>
            <path class="cls-7" d="M1275.68,76.98c4.76,0,8.62,4.31,8.62,9.63s-3.86,9.64-8.62,9.64-8.62-4.31-8.62-9.64,3.86-9.63,8.62-9.63Z"/>
            <path class="cls-7" d="M1192.38,170.58c4.76,0,8.62,4.31,8.62,9.63s-3.86,9.63-8.62,9.63-8.62-4.31-8.62-9.63,3.86-9.63,8.62-9.63Z"/>
            <path class="cls-7" d="M1194.25,281.96c4.76,0,8.62,4.31,8.62,9.63s-3.86,9.63-8.62,9.63-8.62-4.31-8.62-9.63,3.86-9.63,8.62-9.63Z"/>
            <ellipse class="cls-7" cx="1193.96" cy="359.83" rx="8.62" ry="9.63"/>
            <path class="cls-7" d="M1252.92,235.15c4.76,0,8.62,4.31,8.62,9.64s-3.86,9.63-8.62,9.63-8.62-4.31-8.62-9.63,3.86-9.64,8.62-9.64Z"/>
            <ellipse class="cls-7" cx="1208" cy="52.88" rx="8.62" ry="9.63"/>
            <path class="cls-7" d="M1235.9,125.09c4.76,0,8.62,4.31,8.62,9.63s-3.86,9.63-8.62,9.63-8.62-4.31-8.62-9.63,3.86-9.63,8.62-9.63Z"/>
            <path class="cls-7" d="M1127.33,128.23c4.76,0,8.62,4.31,8.62,9.63s-3.86,9.63-8.62,9.63-8.62-4.31-8.62-9.63,3.86-9.63,8.62-9.63Z"/>
            <path class="cls-7" d="M1073.98,217.12c4.76,0,8.62,4.31,8.62,9.63s-3.86,9.63-8.62,9.63-8.62-4.31-8.62-9.63,3.86-9.63,8.62-9.63Z"/>
            <path class="cls-7" d="M1038.6,329.44c4.76,0,8.62,4.31,8.62,9.63s-3.86,9.63-8.62,9.63-8.62-4.31-8.62-9.63,3.86-9.63,8.62-9.63Z"/>
            <path class="cls-7" d="M999.29,404.31c4.76,0,8.62,4.31,8.62,9.63s-3.86,9.64-8.62,9.64-8.62-4.31-8.62-9.64,3.86-9.63,8.62-9.63Z"/>
            <path class="cls-7" d="M1011,187.94c4.76,0,8.62,4.31,8.62,9.63s-3.86,9.63-8.62,9.63-8.62-4.31-8.62-9.63,3.86-9.63,8.62-9.63Z"/>
            <path class="cls-7" d="M1163.46,77.61c4.76,0,8.62,4.31,8.62,9.63s-3.86,9.64-8.62,9.64-8.62-4.31-8.62-9.64,3.86-9.63,8.62-9.63Z"/>
            <path class="cls-7" d="M1036.17,76.56c4.76,0,8.62,4.31,8.62,9.63s-3.86,9.63-8.62,9.63-8.62-4.31-8.62-9.63,3.86-9.63,8.62-9.63Z"/>
            <path class="cls-7" d="M1399.7,38.81c4.76,0,8.62,4.31,8.62,9.63s-3.86,9.63-8.62,9.63-8.62-4.31-8.62-9.63,3.86-9.63,8.62-9.63Z"/>
            <path class="cls-7" d="M1824.86,131.63c4.76,0,8.62,4.31,8.62,9.63s-3.86,9.63-8.62,9.63-8.62-4.31-8.62-9.63,3.86-9.63,8.62-9.63Z"/>
          </g>
        </g>
      </g>
    </g>
  </g>
</svg>